<?xml version="1.0" encoding="utf-8"?>
<!-- Generator: Adobe Illustrator 19.2.0, SVG Export Plug-In . SVG Version: 6.00 Build 0)  -->
<svg version="1.1" id="Layer_1" xmlns="http://www.w3.org/2000/svg" xmlns:xlink="http://www.w3.org/1999/xlink" x="0px" y="0px"
	 viewBox="0 0 640 480" style="enable-background:new 0 0 640 480;" xml:space="preserve">
<style type="text/css">
	.st0{fill:#FFFFFF;}
	.st1{fill:none;stroke:#FFFFFF;stroke-width:4.2403;stroke-miterlimit:10;}
	.st2{fill:#FFFFFF;stroke:#FFFFFF;stroke-width:8.4807;stroke-miterlimit:10;}
	.st3{fill:none;stroke:#FFFFFF;stroke-width:8.4807;stroke-miterlimit:10;}
	.st4{fill:none;stroke:#FFFFFF;stroke-width:3.0015;stroke-miterlimit:10;}
	.st5{fill:none;stroke:#FFFFFF;stroke-width:6.0029;stroke-miterlimit:10;}
	.st6{fill:none;stroke:#FFFFFF;stroke-width:4.1973;stroke-miterlimit:10;}
	.st7{fill:none;stroke:#FFFFFF;stroke-width:2.408;stroke-miterlimit:10;}
	.st8{fill:none;stroke:#FFFFFF;stroke-width:4.2536;stroke-miterlimit:10;}
	.st9{fill:#662D91;}
	.st10{fill:none;stroke:#FFFFFF;stroke-width:4.1973;stroke-linecap:round;stroke-miterlimit:10;}
	.st11{fill:#FFFFFF;stroke:#FFFFFF;stroke-width:3.3569;stroke-linecap:round;stroke-linejoin:round;stroke-miterlimit:10;}
	.st12{fill:none;stroke:#FFFFFF;stroke-width:4.8731;stroke-linecap:round;stroke-linejoin:round;stroke-miterlimit:10;}
	.st13{fill:#FFFFFF;stroke:#FFFFFF;stroke-width:2.7346;stroke-linecap:round;stroke-linejoin:round;stroke-miterlimit:10;}
	.st14{fill:none;stroke:#FFFFFF;stroke-width:5;stroke-linecap:round;stroke-linejoin:round;stroke-miterlimit:10;}
	.st15{fill:none;stroke:#FFFFFF;stroke-width:5.2743;stroke-linecap:round;stroke-linejoin:round;stroke-miterlimit:10;}
	.st16{fill:none;stroke:#FFFFFF;stroke-width:1.5666;stroke-miterlimit:10;}
	.st17{fill:none;stroke:#FFFFFF;stroke-width:1.0329;stroke-miterlimit:10;}
	.st18{fill:none;stroke:#FFFFFF;stroke-width:4.1585;stroke-miterlimit:10;}
	.st19{fill:none;stroke:#FFFFFF;stroke-width:3.7088;stroke-miterlimit:10;}
	.st20{fill:none;stroke:#FFFFFF;stroke-width:2.0792;stroke-miterlimit:10;}
	.st21{fill:none;}
	.st22{fill:none;stroke:#FFFFFF;stroke-width:8.317;stroke-linecap:round;stroke-linejoin:round;stroke-miterlimit:10;}
	.st23{fill:none;stroke:#FFFFFF;stroke-width:15.1145;stroke-linecap:round;stroke-linejoin:round;stroke-miterlimit:10;}
	.st24{fill:none;stroke:#FFFFFF;stroke-width:3.7786;stroke-linecap:round;stroke-linejoin:round;stroke-miterlimit:10;}
	.st25{fill:#FFFFFF;stroke:#FFFFFF;stroke-width:3.7786;stroke-linecap:round;stroke-linejoin:round;stroke-miterlimit:10;}
	.st26{fill:#FFFFFF;stroke:#FFFFFF;stroke-width:4.4203;stroke-linecap:round;stroke-linejoin:round;stroke-miterlimit:10;}
	.st27{fill:#FFFFFF;stroke:#FFFFFF;stroke-width:3.7479;stroke-linecap:round;stroke-linejoin:round;stroke-miterlimit:10;}
</style>
<path class="st4" d="M111.6,161.4c6.4,25.9,24.7,48.4,51.3,59c26.6,10.6,55.4,6.9,77.9-7.4c-19.8,3.6-45.3,0.7-71.1-9.6
	C144,193.1,123.5,177.6,111.6,161.4z"/>
<path class="st4" d="M268.8,98.2c-13.1-0.9-30.4-5.1-48.5-12.4c-20.4-8.2-37.5-18.4-47.3-27.6c-8.3,2.2-16.1,5.6-23.4,10.1
	c12.6,13.8,33.5,27.7,59,37.8c25.5,10.2,50.2,14.5,68.8,13.2C275.5,112,272.6,104.9,268.8,98.2z"/>
<path class="st4" d="M268.8,98.2C259.5,82.2,245,69,226.4,61.6c-17.7-7.1-36.3-7.8-53.4-3.3c9.8,9.2,26.8,19.4,47.3,27.6
	C238.4,93.1,255.7,97.3,268.8,98.2z"/>
<path class="st4" d="M275.7,168.4c0.9-2.7,1.7-5.5,2.4-8.3c-1.6,0.5-3.2,0.9-4.9,1.3c-22.4,4.9-55.4-0.5-88.3-16.5
	c-25.2-12.2-45.5-28.2-58.2-44.3c-1.5-1.9-2.8-3.7-4.1-5.6c-2,3.1-3.8,6.4-5.4,9.9c-0.6,1.4-1.3,2.8-1.8,4.2
	c-6.9,17.2-7.8,35.4-3.6,52.1c11.8,16.2,32.4,31.7,58.1,42c25.7,10.3,51.3,13.2,71.1,9.6c14.5-9.3,26.4-23,33.3-40.3
	C274.7,171.3,275.2,169.8,275.7,168.4z"/>
<path class="st4" d="M277.4,119.4c-18.6,1.3-43.4-3-68.8-13.2c-25.5-10.2-46.4-24.1-59-37.8C138.9,75,129.5,84,122.5,95.1
	c1.3,1.8,2.6,3.7,4.1,5.6c12.7,16.1,33.1,32.1,58.2,44.3c32.9,15.9,65.9,21.4,88.3,16.5c1.7-0.4,3.3-0.8,4.9-1.3
	C281.2,146.4,280.9,132.4,277.4,119.4z"/>
<path class="st5" d="M179,175c-28.7-13.3-53.2-28.6-70.1-42.7c-4,37.3,17,74.3,53.6,88.9c33.4,13.4,70.3,4.2,93.8-20.2
	C234.7,197.1,207.4,188.2,179,175z"/>
<path class="st5" d="M126.8,88.1c-21.8-3.5-37.2-1.5-41,6.8c-4,8.6,5.2,22.3,23.1,37.3c0.8-7.6,2.7-15.3,5.7-22.8
	C117.7,101.6,121.9,94.5,126.8,88.1z"/>
<path class="st5" d="M278.6,158.6c-1,4.9-2.5,9.8-4.4,14.6c-4.2,10.6-10.4,20-17.9,27.7c23.3,4.1,39.9,2.3,43.9-6.3
	C304.1,186.3,295.5,173.1,278.6,158.6z"/>
<path class="st5" d="M278.6,158.6c8.2-40-13.1-81.4-52.3-97.1C190,47,149.8,59,126.8,88.1c-5,6.3-9.1,13.5-12.3,21.3
	c-3,7.5-4.9,15.2-5.7,22.8c16.8,14.1,41.4,29.4,70.1,42.7c28.5,13.2,55.8,22.1,77.4,26c7.5-7.8,13.6-17.1,17.9-27.7
	C276.1,168.4,277.6,163.5,278.6,158.6z"/>
<g>
	<circle class="st5" cx="441.5" cy="67.2" r="65.4"/>
	<circle class="st4" cx="464" cy="44.3" r="10.7"/>
</g>
<g>
	<circle class="st5" cx="429.6" cy="338.5" r="126"/>
	<g>
		<g>
			<path class="st0" d="M368,230.5c7.9,3.9,15.8,7.7,23.7,11.6c2.3,1.1,6.7,1.7,4.3,5.1c-0.9,1.3-3,2.3-4.4,3.1
				c-3.5,2-7.4,3.3-11.2,4.8c-2.9,1.1-5.8,2.3-8.5,4c-3.3,2-5.9,4.9-9.8,5.9c-8.7,2.2-18.5-2.8-22.6-10.5c-1-1.9-3.9-0.2-2.9,1.7
				c4.2,7.8,12.4,12.2,21.1,12.7c4.8,0.2,8.1-1.2,11.9-4c4.7-3.5,9.7-5.7,15.2-7.8c3.9-1.5,18.8-6.8,15.9-13.3
				c-0.7-1.5-2.6-2.1-3.9-2.8c-3.1-1.5-6.2-3-9.3-4.6c-5.9-2.9-11.8-5.8-17.8-8.7C367.7,226.6,366,229.5,368,230.5L368,230.5z"/>
		</g>
	</g>
	<g>
		<g>
			<path class="st0" d="M328.7,272.2c4.7,1.9,9.2,4.2,13.4,7.3c3.2,2.4,8,8.3,1,10.5c-2.4,0.8-5.2,0.2-7.7,0.6c-6,1-9,4.8-9.2,10.8
				c-0.1,2.4,0.3,5-0.6,7.3c-1.1,2.8-3.4,4.1-6,5.2c-3.3,1.4-7,2.4-9.4,5.2c-3.4,4-2.5,9.2,1.9,11.8c3.3,2,6.9,2,8.4,6.2
				c0.9,2.6,1.4,4.6,3.8,6.3c5.9,4,12.9,1.3,19.3,2.1c2.6,0.3,5.6,1.7,7.9,3.1c2.9,1.8,4.1,5.2,5.9,8c1.6,2.5,3.4,4.6,5.9,6.1
				c2.8,1.8,4.9,2.4,6.3,6c0.8,2.3,1,5,0.9,7.4c-0.3,6-3.4,10-6.1,15.1c-2.2,4.1-1.8,8-2,12.5c-0.8,14.2-16.7,15-27.5,14.6
				c-2.2-0.1-2.2,3.3,0,3.4c8.4,0.3,17.7,0.4,24.6-5.2c2.8-2.3,5-5.3,5.9-8.8c1.4-5.6-0.3-10.8,2.8-16.1c4.4-7.5,7.6-15,4.8-23.8
				c-1-3.3-3-5.3-6-7c-4.9-2.8-7.2-6.8-9.7-11.8c-1.8-3.7-8.8-6.4-12.8-6.9c-3.6-0.5-7.1,0.3-10.7,0.3c-2.4,0-5.3-0.3-7.3-1.8
				c-2.5-1.9-2-4.3-3.3-6.7c-1.2-2.2-3.3-3.2-5.5-4.2c-2.9-1.3-4.9-1.4-5.1-5c-0.2-3.3,1.1-4.2,3.9-5.7c1.6-0.8,3.3-1.3,5-2
				c2.7-1.2,5.5-2.7,7-5.4c2.2-3.8,0.8-8,1.7-12c1.9-8.2,10.7-4.5,16.4-6.7c2.9-1.2,5.2-3.6,5.1-6.8c-0.2-4-3.7-6.7-6.6-8.8
				c-4.6-3.4-9.5-6.1-14.9-8.1C327.6,268.1,326.7,271.4,328.7,272.2L328.7,272.2z"/>
		</g>
	</g>
	<g>
		<g>
			<path class="st0" d="M313,388.1c6.9-2.4,10.7-9.7,8-16.6c-1-2.7-2.8-4.9-3-7.9c-0.1-1.7,0.3-3.1-0.5-4.7c-0.6-1.2-1.7-2-2.8-2.7
				c-3-2-5-3.1-7.1-6.3c-1.2-1.8-4.1-0.1-2.9,1.7c1.6,2.4,3.1,4.4,5.6,6c1,0.7,3,1.3,3.8,2.3c1.1,1.6,0.4,3.7,0.8,5.4
				c0.5,3.1,2.7,5.5,3.5,8.5c1.3,4.7-1.6,9.5-6.2,11.1C310.1,385.6,310.9,388.9,313,388.1L313,388.1z"/>
		</g>
	</g>
	<g>
		<g>
			<path class="st0" d="M543,387.9c-4.3-0.8-4-8.8-8.3-10.7c-1.6-0.7-3.2-0.6-4.9-0.7c-4.9-0.3-7.4-2.9-6.6-7.9
				c1.4-8,14.6-14.5,10-23.8c-0.6-1.3-1.7-2.5-3-3.2c-2.1-1.1-2.5-0.4-3.9-2.8c-1.7-2.9-4-5.9-7.8-5.7c-4.1,0.2-2.8,3.6-5.1,6
				c-1.9,2-5.5,2.3-8,2.2c-1.7-0.1-3.9-0.3-5.3-1.4c-2.4-1.8-1.8-4.5-2.1-6.9c-0.6-4.7-8.1-15.2-12.1-7.3c-1.2,2.4-0.4,5.2-2.6,7.3
				c-3.4,3.2-7.4,0.1-10.9-0.8c-3.4-0.9-7.6-0.3-8.8,3.5c-0.8,2.2-0.1,4.3,1.9,5.5c1.8,1.1,4.1,1.2,6,2c1.8,0.7,3.8,1.6,4.7,3.6
				c2.1,4.5-1,5.9-3.7,7.3c-3.2,1.6-6.9,2.7-8.5,6.3c-2.4,5.5,4.7,7.9,3.8,13c-0.8,4.5-7,6.7-8.4,11.3c-1.7,5.4,3.1,10.5,1.6,15.8
				c-2.2,7.6-12,6.6-17.4,4.1c-2.5-1.2-4.9-2.6-7.2-4.2c-3.1-2.2-3.9-4.1-3.3-8c0.5-2.8,0.7-4.9-1.1-7.3c-1-1.3-2.2-2.1-3.7-2.7
				c-2.6-0.9-3.6,0.7-3.3-4.5c0.1-0.9,0.9-2,1-3c1.4-10-11.2-12.1-17.1-16.4c-5.6-4-6-11.8-6.1-18.1c-0.1-6.5,1-13.3,5.3-18.5
				c3.8-4.6,9.5-7.4,15.4-7.6c4.6-0.2,9.6,2.4,14,0.3c6.6-3,4.6-10.5-1.8-11.4c-1.6-0.2-3.2-0.1-4.8-0.3c-4.1-0.6-3.2-2.8-5.4-5.4
				c-2.8-3.3-5.6-0.5-9-0.7c-7.8-0.3-5.3-7.7-1.5-11.4c2.5-2.5,5.6-4.2,8.9-5.3c3.4-1.2,8.3-2.8,7.4-7.4
				c-0.9-5.1-14.8-11.6-4.3-16.7c6.7-3.3,14.6-4.1,21.9-2.6c5.4,1.1,10,5.3,15.4,3c4.2-1.7,6.7-1.7,11.2-1.1
				c2.3,0.3,4.5,0.6,6.8,0.3c1.8-0.3,3.5-0.8,4.9-1.8c0.8-0.6,1.3-1.6,2.1-2.2c1.9-1.4,3.4-1,5.5-1.3c5.2-0.7,9.4-4.5,13-7.9
				c1.6-1.5-0.8-3.9-2.4-2.4c-2.8,2.6-5.8,5.5-9.6,6.6c-2.2,0.6-4.7-0.4-6.7,0.4c-1.7,0.6-2.1,2.4-3.3,3.5c-3.1,3-8.1,1.6-11.8,1.1
				c-2.3-0.3-4.5-0.6-6.8-0.2c-3.9,0.7-4.7,2.9-9.4,1.4c-5.1-1.7-9.7-3.5-15.1-3.6c-6.4-0.2-22.7,1.6-23.3,10.4
				c-0.3,4.7,3.8,7.1,5.8,10.6c0.4,0.4,0.8,0.8,1.2,1.2c0.1,3.2-1.1,5-3.6,5.3c-0.7,0.4-2.5,0.9-3.2,1.3c-2.4,1.1-4.7,2.6-6.6,4.4
				c-4.6,4.3-9.1,15.5,0.2,17.7c2,0.5,3.5-0.4,5.5-0.5c3.2-0.2,4.1,1.3,5.8,3.7c2,2.8,5.4,2.8,8.5,3c1,0.1,2.8-0.2,3.7,0.5
				c0.3,1.2,0.5,2.5,0.8,3.7c-2.1,1.5-4.3,1.8-6.6,1.2c-2.2-0.3-4.4-0.9-6.7-0.9c-4.6,0-9.1,1.4-13,3.8
				c-8.9,5.6-11.9,15.7-11.8,25.7c0.1,4.8,0.4,10.1,2.4,14.5c2.2,4.9,6.2,7.2,10.9,9.3c2.6,1.2,5.2,2.2,7.3,4.2
				c3.2,3.1,2.7,5.6,1.4,9.4c-1.3,3.9-0.1,6.2,3.8,7.3c3.2,0.9,5.8,2.5,4.6,6.7c-0.5,1.7-1.1,2-0.9,3.9c0.4,4.8,5.8,7.5,9.4,9.7
				c7.2,4.3,17.4,7.2,23.8-0.2c2.7-3.1,2.8-6.7,2-10.5c-0.7-3.3-2.7-6.7-1-10.1c1.4-2.9,4.5-4.5,6.4-7.1c2.3-3.2,2.5-6.3,0.5-9.6
				c-0.3-0.5-0.7-0.9-1.1-1.4c-2.1-2.8-1.4-5.8,1.6-7.8c2-1.4,4.5-1.8,6.5-3.3c2.8-2.2,4.1-5.4,2.8-8.9c-0.6-1.7-1.7-3.2-3.1-4.3
				c-2.1-1.7-4.6-1.8-6.8-3.1c-0.5-0.1-0.9-0.2-1.4-0.3c0.8-2.9,2-3.9,3.8-3.1c1.3,0.1,2.7,1.1,4,1.5c1.8,0.5,3.6,0.8,5.4,0.4
				c1.9-0.4,3.7-1.6,4.9-3.2c1.4-1.7,1.1-3.7,2-5.5c2.9-5.5,6,3.3,6.3,6.2c0.2,2.1,0.3,4,1.6,5.7c2.6,3.4,7.6,4,11.6,3.6
				c4.5-0.4,6.7-2.1,9.5-5.2c1.2-1.3-0.7-3.3,3.3-2.2c2.4,0.6,2.2,3.2,3.2,4.8c1.2,2,2.1,1.4,3.9,2.4c8.1,4.8-3.6,14.3-6.3,19.4
				c-1.8,3.4-2.4,7.4-0.9,11c1.8,4.2,5.2,4.7,9.2,5.1c5.7,0.6,5.2,3.5,7.3,7.4c1.2,2.1,2.6,3.4,5,3.9
				C544.2,391.6,545.1,388.3,543,387.9L543,387.9z"/>
		</g>
	</g>
</g>
</svg>
