<?xml version="1.0" encoding="utf-8"?>
<!-- Generator: Adobe Illustrator 19.2.0, SVG Export Plug-In . SVG Version: 6.00 Build 0)  -->
<svg version="1.1" id="Layer_1" xmlns="http://www.w3.org/2000/svg" xmlns:xlink="http://www.w3.org/1999/xlink" x="0px" y="0px"
	 viewBox="0 0 640 480" style="enable-background:new 0 0 640 480;" xml:space="preserve">
<style type="text/css">
	.st0{fill:#FFFFFF;}
	.st1{fill:none;stroke:#FFFFFF;stroke-width:4.2403;stroke-miterlimit:10;}
	.st2{fill:#FFFFFF;stroke:#FFFFFF;stroke-width:8.4807;stroke-miterlimit:10;}
	.st3{fill:none;stroke:#FFFFFF;stroke-width:8.4807;stroke-miterlimit:10;}
	.st4{fill:none;stroke:#FFFFFF;stroke-width:3.0015;stroke-miterlimit:10;}
	.st5{fill:none;stroke:#FFFFFF;stroke-width:6.0029;stroke-miterlimit:10;}
	.st6{fill:none;stroke:#FFFFFF;stroke-width:4.1973;stroke-miterlimit:10;}
	.st7{fill:none;stroke:#FFFFFF;stroke-width:2.408;stroke-miterlimit:10;}
	.st8{fill:none;stroke:#FFFFFF;stroke-width:4.2536;stroke-miterlimit:10;}
	.st9{fill:#662D91;}
	.st10{fill:none;stroke:#FFFFFF;stroke-width:4.1973;stroke-linecap:round;stroke-miterlimit:10;}
	.st11{fill:#FFFFFF;stroke:#FFFFFF;stroke-width:3.3569;stroke-linecap:round;stroke-linejoin:round;stroke-miterlimit:10;}
	.st12{fill:none;stroke:#FFFFFF;stroke-width:4.8731;stroke-linecap:round;stroke-linejoin:round;stroke-miterlimit:10;}
	.st13{fill:#FFFFFF;stroke:#FFFFFF;stroke-width:2.7346;stroke-linecap:round;stroke-linejoin:round;stroke-miterlimit:10;}
	.st14{fill:none;stroke:#FFFFFF;stroke-width:5;stroke-linecap:round;stroke-linejoin:round;stroke-miterlimit:10;}
	.st15{fill:none;stroke:#FFFFFF;stroke-width:5.2743;stroke-linecap:round;stroke-linejoin:round;stroke-miterlimit:10;}
	.st16{fill:none;stroke:#FFFFFF;stroke-width:1.5666;stroke-miterlimit:10;}
	.st17{fill:none;stroke:#FFFFFF;stroke-width:1.0329;stroke-miterlimit:10;}
	.st18{fill:none;stroke:#FFFFFF;stroke-width:4.1585;stroke-miterlimit:10;}
	.st19{fill:none;stroke:#FFFFFF;stroke-width:3.7088;stroke-miterlimit:10;}
	.st20{fill:none;stroke:#FFFFFF;stroke-width:2.0792;stroke-miterlimit:10;}
	.st21{fill:none;}
	.st22{fill:none;stroke:#FFFFFF;stroke-width:8.317;stroke-linecap:round;stroke-linejoin:round;stroke-miterlimit:10;}
	.st23{fill:none;stroke:#FFFFFF;stroke-width:15.1145;stroke-linecap:round;stroke-linejoin:round;stroke-miterlimit:10;}
	.st24{fill:none;stroke:#FFFFFF;stroke-width:3.7786;stroke-linecap:round;stroke-linejoin:round;stroke-miterlimit:10;}
	.st25{fill:#FFFFFF;stroke:#FFFFFF;stroke-width:3.7786;stroke-linecap:round;stroke-linejoin:round;stroke-miterlimit:10;}
	.st26{fill:#FFFFFF;stroke:#FFFFFF;stroke-width:4.4203;stroke-linecap:round;stroke-linejoin:round;stroke-miterlimit:10;}
	.st27{fill:#FFFFFF;stroke:#FFFFFF;stroke-width:3.7479;stroke-linecap:round;stroke-linejoin:round;stroke-miterlimit:10;}
</style>
<g>
	<g>
		<circle class="st0" cx="210.9" cy="70.2" r="17.5"/>
		<path class="st0" d="M271.2,59.7c-2.5-3.8-8.5-4-11.8-1.4c-3.8,3-3.9,8-1.4,11.8c7.9,12.2,13.4,28.9,10.8,43.6
			c2.8,9.7,3.9,19.9,2.3,29.6c6.5-6.7,11.5-14.7,13.8-24.6C289.4,98.8,282,76.5,271.2,59.7z"/>
		<path class="st0" d="M253.9,143.6c0.6-2.5,0.9-5.1,1-7.7c-6.3,5.4-13.9,9.6-20.6,13.4c-4,2.2-6.4,6.5-4.5,11
			c1.3,3.2,5.3,5.7,8.8,5.2C245.8,159.8,251.8,152.8,253.9,143.6z"/>
		<path class="st6" d="M268.7,113.8c-2.7-9.3-7-18.2-12-26c-2.5-3.8-8.5-4-11.8-1.4c-3.8,3-3.9,8-1.4,11.8
			c6.8,10.6,11.9,24.6,11.4,37.7c-0.1,2.6-0.4,5.2-1,7.7c-2.1,9.1-8.1,16.2-15.4,21.9c-5.9,4.7-12.6,8.5-18.7,11.8
			c-4,2.2-6.4,6.5-4.5,11c1.6,3.9,7,6.7,11,4.5c19.1-10.5,38.8-23.3,44.1-46c0.3-1.2,0.5-2.3,0.7-3.5
			C272.6,133.7,271.5,123.5,268.7,113.8z"/>
	</g>
	<g>
		<g>
			<g>
				<path class="st0" d="M111,287.1c-6.5-1.7-14.2-3.3-19.9,1.4c-5.6,4.5-3.3,10.6-5.1,16.6c-1.5,4.9-6.3,4.4-9.9,6.8
					c-1.9,1.3-3.3,3.1-4,5.3c-2.1,6.4,1.5,20.8-10.3,18c-2.7-0.6-3.8,3.5-1.1,4.1c5.3,1.3,11-0.8,13.5-5.9c3.2-6.6-1.6-15.7,6.9-19
					c5.5-2.2,8.8-4.4,9.6-10.6c0.5-3.8-0.4-8.3,2.6-11.3c4.4-4.5,11.6-2.6,16.9-1.2C112.5,291.9,113.7,287.8,111,287.1L111,287.1z"
					/>
			</g>
		</g>
		<g>
			<g>
				<path class="st0" d="M104.5,291.8c-4.4,5.5-9.5,12.6-6.3,20c1,2.2,2.9,3.7,3.4,6.1c0.6,3.5-1.7,5.3-4.6,6.7
					c-2.7,1.4-5.6,3.4-5.5,6.8c0,2.8,2,4.3,4.3,5.5c2.2,1.1,5.4,2.4,4.5,5.7c-0.7,2.7-4.8,3.9-6.9,5.1c-4.6,2.7-8.1,9.6-1.9,12.8
					c2.4,1.3,4.6-2.4,2.1-3.7c-5.1-2.7,6.2-7.5,7.7-8.8c1.9-1.6,3.2-3.6,3.3-6.1c0.1-2.1-0.7-4.4-2.1-5.9c-1.9-2-8.3-2.8-5.3-6.7
					c1.5-1.9,5-2.2,6.7-4.3c1.6-1.9,2.3-4.5,2.1-7c-0.3-2.9-2.2-4.5-3.5-7c-3.2-5.9,1.5-11.8,5-16.2
					C109.2,292.7,106.2,289.6,104.5,291.8L104.5,291.8z"/>
			</g>
		</g>
		<g>
			<g>
				<path class="st0" d="M114.6,364.1c2.3-1.4,3.4-3.5,3.4-6.3c0.1-4-3.4-7.2-3.3-11.1c0.1-4.5,5.2-7.8,6.9-11.7
					c1.3-3,1.2-6-0.7-8.8c-1.4-2-3.4-3.4-4.4-5.6c-1.2-3-0.2-5.3,1.5-7.9c1.7-2.7,3.8-5.2,4.3-8.4c1.1-7.1-5.3-11.5-10.8-14.4
					c-2.4-1.3-4.6,2.4-2.1,3.7c3.1,1.6,7.4,3.7,8.5,7.3c1,3.3-1.2,6.1-2.9,8.6c-2.9,4.4-4.9,8.7-2,13.8c2.1,3.7,6.8,6.2,4.1,11.2
					c-1.5,2.8-4.1,4.9-5.5,7.8c-1,2.1-1.4,4.2-1,6.4c0.6,3,5.6,9.3,1.8,11.8C110.1,361.8,112.3,365.5,114.6,364.1L114.6,364.1z"/>
			</g>
		</g>
		<g>
			<g>
				<path class="st0" d="M147.9,218.1c2.7-4.7,8.1-5.6,13.1-5.8c3.5-0.2,7.3-0.2,8.8,3.7c1,2.6,0.4,6.1-0.3,8.8
					c-1.5,5.5-5.5,8.6-8.6,13c-2,2.9-3.3,6.6-1.9,10.1c1.5,3.9,5.3,4.3,8.3,6.6c6.6,5.1-0.2,10-2.6,15c-4.1,8.3,3.5,16.4,1.8,24.9
					c-0.5,2.7,3.6,3.8,4.1,1.1c1.1-5.3-0.6-9.9-1.9-14.9c-0.9-3.5-1.6-7,0.4-10.2c1.4-2.2,3.4-3.9,4.4-6.4c1.6-4,0.7-8.8-2.4-11.9
					c-1.8-1.8-4.6-2.2-6.4-3.9c-5.1-4.7,1.1-9.5,3.8-12.8c5.2-6.2,10.5-21.6,0.6-26.4c-4-1.9-9.8-1.2-14-0.3
					c-4.6,1-8.5,3.1-10.9,7.2C142.9,218.3,146.5,220.4,147.9,218.1L147.9,218.1z"/>
			</g>
		</g>
		<g>
			<g>
				<path class="st0" d="M143.8,218.6c1.1-6.3,2.2-13.7-2.3-19c-4.3-5-12.9-5.8-19.1-5.7c-6.1,0-12.1,1.9-15.6,7.3
					c-4,6.2-2.3,15.7-7.2,21.2c-3.6,4.1-9.1,0.8-13.8,1.1c-2.7,0.2-5.2,1.2-7.3,2.8c-5.3,3.9-6.1,9.2-6,15.4c0.1,3,0.1,5.5-3.3,6.7
					c-1.9,0.7-4.1,0.4-6,0.7c-2.9,0.4-5.7,1.2-8.3,2.7c-5.6,3.2-9.5,8.6-10.9,14.9c-0.6,2.7,3.5,3.8,4.1,1.1
					c1.5-6.6,6.3-12.2,12.9-14c4.4-1.2,10,0.1,13.5-3.7c3.7-4,1.4-9.3,2.3-14.1c0.7-3.5,3.6-6.7,7-7.8c3.5-1.2,7,0.3,10.5,0.5
					c12.7,0.8,11.4-15.2,15-23.2c3.5-7.8,11.9-7.9,19.3-6.8c4.3,0.7,8.8,1.4,10.8,5.8c1.9,4.1,1,8.8,0.3,13
					C139.3,220.2,143.4,221.3,143.8,218.6L143.8,218.6z"/>
			</g>
		</g>
		<g>
			<g>
				<path class="st0" d="M144.1,219.1c-9.4-12.7-22.9,1.9-28.1,10.5c-4.2,6.8-7.1,14.3-9.9,21.8c-2.6,7-5.6,14.5-5.1,22.2
					c0.9,13.1,14.7,19.4,26.1,13.9c6.1-2.9,10.5-8.5,13.2-14.6c1.7-3.9,2.9-7.9,4.7-11.8c1.7-3.8,3.7-7.5,5-11.5
					c2.6-7.5,4.8-17.6,2.2-25.4c-0.8-2.4-2.3-4.8-4.7-6.1c-2.1-1.1-3.7-0.5-5.9-0.1c-2.7,0.6-1.5,4.7,1.1,4.1c0.6-0.1,1.4-0.5,2-0.4
					c1.8,0.1,2.6,1.9,3.3,3.6c1.2,3,0.9,6.5,0.7,9.6c-0.6,8-3.3,15.2-6.7,22.4c-5.3,11.3-10.1,31-27,27.5
					c-17.3-3.6-7.4-26.1-3.4-36.3c2.5-6.6,5.4-13.1,9.3-19c3.4-5.1,13.2-17,19.5-8.4C142,223.4,145.7,221.3,144.1,219.1z"/>
			</g>
		</g>
		<g>
			<g>
				<path class="st0" d="M138.9,236.7c3.1,0,3.1-4.8,0-4.8C135.8,231.8,135.8,236.7,138.9,236.7L138.9,236.7z"/>
			</g>
		</g>
		<g>
			<g>
				<path class="st0" d="M131.3,229c3.1,0,3.1-4.8,0-4.8C128.2,224.2,128.2,229,131.3,229L131.3,229z"/>
			</g>
		</g>
		<g>
			<g>
				<path class="st0" d="M130.8,240.1c-1.2,1.4-1.9,3.1-1.9,4.9c0,1.3,1.1,2.5,2.4,2.4c1.3-0.1,2.4-1.1,2.4-2.4c0-0.1,0.1-0.9,0-0.4
					c0-0.2,0.1-0.4,0.2-0.6c0.2-0.6-0.2,0.3,0.1-0.2c0.1-0.1,0.6-0.8,0.2-0.4c0.8-1,1-2.5,0-3.4
					C133.3,239.3,131.6,239.1,130.8,240.1L130.8,240.1z"/>
			</g>
		</g>
		<g>
			<g>
				<path class="st0" d="M123.3,241.9c3.1,0,3.1-4.8,0-4.8C120.2,237.1,120.2,241.9,123.3,241.9L123.3,241.9z"/>
			</g>
		</g>
		<g>
			<g>
				<path class="st0" d="M127.3,259.1c3.1,0,3.1-4.8,0-4.8C124.2,254.3,124.2,259.1,127.3,259.1L127.3,259.1z"/>
			</g>
		</g>
		<g>
			<g>
				<path class="st0" d="M115.7,265.5c3.1,0,3.1-4.8,0-4.8C112.6,260.7,112.6,265.5,115.7,265.5L115.7,265.5z"/>
			</g>
		</g>
		<g>
			<g>
				<path class="st0" d="M116.1,276.4c3.1,0,3.1-4.8,0-4.8C113,271.6,113,276.4,116.1,276.4L116.1,276.4z"/>
			</g>
		</g>
	</g>
	<g>
		<circle class="st7" cx="392.4" cy="99.6" r="4.3"/>
		<circle class="st7" cx="388.6" cy="123.8" r="4.5"/>
		<g>
			<g>
				<g>
					<path class="st0" d="M480.9,39c10.5-0.5,21-1.1,31.5-1.6c4.4-0.2,13-2.3,15.4,2.3c2.3,4.3,2.3,10.2,1.8,15
						c-0.5,4.8-2.2,9-4.3,13.3c-1.7,3.3-3.4,6.7-3.5,10.4c-0.1,4.1,1.7,7.8,3.2,11.5c1.8,4.4,3.1,9,4,13.7
						c1.7,9.4,2.8,21.8-7.5,26.5c-8.5,3.9-19.1,4.8-28.3,4.8c-9.1,0-17.5-0.8-26,3.3c-7.7,3.7-14.3,9.6-21,14.8
						c-11.5,8.9-37.8,32.9-47,8.6c-2.5-6.5-5.3-10.9-11.4-14.5c-5.7-3.4-12.5-5.3-17.3-10.1c-7.1-7.1-4.3-18.9-1-27.2
						c3.5-8.8,9.3-16.3,16-22.9c10.2-10,21.3-19.5,21.3-34.9c0-9.2-4-20.4,0.8-29.1c5.2-9.4,17.5-9.9,26.6-6.9
						c16.4,5.4,29.1,19.1,46.1,22.8c2.7,0.6,3.8-3.5,1.1-4.1C464,31.1,451,16.5,433.7,11.6c-15.9-4.5-32.3,3.2-32.5,21
						c-0.1,9.5,3.2,19.2,0,28.5c-3.1,9-11,15.5-17.6,21.9c-12,11.6-25.4,30.3-21.1,48.2c1.8,7.4,7.6,11.7,14.1,15
						c3.2,1.6,6.5,3.1,9.6,5c4.8,3,7,6.5,8.9,11.7c2.7,7.3,7.1,12.3,15.1,13.4c8.8,1.2,16.8-3.1,23.6-8.2
						c8.7-6.4,16.9-13.4,25.6-19.8c4.3-3.2,8.9-6.3,14-7.9c5.9-1.9,11.9-1.2,18-1.1c10.1,0.1,21.4-0.9,30.8-4.7
						c7.6-3.1,11.3-9,11.9-17.1c0.9-11.9-3.1-22.2-6.9-33.2c-2.6-7.3,1.2-12.1,4-18.6c1.9-4.4,2.8-9.2,2.9-13.9
						c0.1-4.6-0.5-9.7-2.4-13.9c-2-4.2-5-5.2-9.4-5.2c-13.7,0.1-27.6,1.4-41.3,2.1C478.2,34.9,478.2,39.1,480.9,39z"/>
				</g>
			</g>
			
				<ellipse transform="matrix(0.9307 -0.3659 0.3659 0.9307 -4.1023 170.7679)" class="st8" cx="448.5" cy="96.2" rx="38.3" ry="31.8"/>
			<g>
				<g>
					<path class="st0" d="M437.5,88.9c1.7-3.9,8.2-6.3,12.1-7.4c5.7-1.6,12.1-0.3,15.1,5.3c2.7,5.1-1.5,20,9.2,17.3
						c3.8-0.9,2.2-6.8-1.6-5.9c-0.1,0,0-7.3-0.1-8c-0.3-2.5-1.2-5-2.6-7.2c-2.5-3.9-6.5-6.8-11-7.9c-5.2-1.2-10.5,0.1-15.3,2.3
						c-4.2,1.9-9,4-11,8.4C430.6,89.4,435.9,92.5,437.5,88.9L437.5,88.9z"/>
				</g>
			</g>
			<g>
				<g>
					<path class="st0" d="M458.2,91.9c0.3,2.2,0.4,4.3,0.2,6.6c-0.4,3.4-2.3,3.3-5.3,1.9c-2.6-1.3-5.1-3-7.8-4.1
						c-5.4-2.1-12-2.6-16.8,1.1c-9,7-3,21.4,8.4,18.2c3.8-1,2.2-6.9-1.6-5.9c-4.4,1.2-6.9-3.5-3.9-6.9c2-2.2,5.3-2.4,8-2
						c5.3,0.9,9.1,4.8,14.1,6.2c10.4,3,11.8-7.5,10.8-15.2C463.8,88.1,457.7,88,458.2,91.9L458.2,91.9z"/>
				</g>
			</g>
			<g>
				<g>
					<path class="st0" d="M407.4,119.4c-3.3-0.2-5.1,2.7-5.4,5.7c-0.4,3.4,1.8,5.9,5.2,6.1c2.9,0.2,5.5-1.5,5.8-4.5
						c0.4-3-1-6.9-4.6-6.7c-1.5,0.1-1.6,2.5,0,2.4c2.1-0.1,2.6,3,2.1,4.6c-0.4,1.5-2,2-3.4,1.8c-1.9-0.2-2.9-1.5-2.7-3.4
						c0.2-1.7,1-3.7,3-3.5C408.9,121.9,408.9,119.4,407.4,119.4L407.4,119.4z"/>
				</g>
			</g>
			<g>
				<g>
					<path class="st0" d="M504.7,76.3c-6.5-0.2-6.2,11.4,0.3,11.4c2.8,0,5.8-2.1,6.3-4.9c0.4-2.6-2-6.1-4.6-6.6
						c-1.5-0.3-2.2,2-0.6,2.3c1.2,0.3,2.8,2.1,2.9,3.5c0.1,1.6-1.7,3-3.1,3.3c-4.2,0.9-4.5-6.6-1-6.5
						C506.3,78.7,506.3,76.3,504.7,76.3L504.7,76.3z"/>
				</g>
			</g>
			<g>
				<g>
					<path class="st0" d="M483.4,46.5c-1.5-2.6-4.7-4.1-7.6-3.3c-3.2,0.9-5.3,4.2-4.8,7.4c0.5,3.1,3.3,5.6,6.5,5.4
						c4.3-0.3,5.3-4.1,6.4-7.5c0.5-1.5-1.9-2.1-2.3-0.6c-0.6,2-1,4.8-3.2,5.6c-2.2,0.8-4.6-0.9-4.9-3.2c-0.7-4.8,5.7-6.5,8-2.6
						C482.1,49,484.1,47.8,483.4,46.5L483.4,46.5z"/>
				</g>
			</g>
			<g>
				<g>
					<path class="st0" d="M429,24.5c-2.4-2.2-6.1-2-8.1,0.6c-2,2.6-1.6,6.3,1.1,8.3c2.4,1.7,6.2,1.9,8.3-0.5
						c2.1-2.5,1.7-6.7-0.6-8.8c-1.1-1.1-2.8,0.6-1.7,1.7c1.3,1.2,1.6,3,1,4.6c-0.7,2-3.1,2.2-4.8,1.4c-4.6-2.1-0.5-8.9,3.2-5.7
						C428.5,27.2,430.2,25.5,429,24.5L429,24.5z"/>
				</g>
			</g>
			<g>
				<g>
					<path class="st0" d="M479,121c-2.4-0.2-4.7,0.8-6.2,2.7c-1.4,1.8-2.1,4.6-0.4,6.4c1.6,1.7,4.2,1.8,6.1,0.4
						c2.4-1.7,2.9-4.6,3-7.3c0-1.6-2.4-1.6-2.4,0c0,1.6-0.2,3.4-1.2,4.7c-0.9,1.1-2.7,1.8-3.8,0.5c-0.9-1.2,0.3-2.9,1.2-3.8
						c1.1-0.9,2.3-1.3,3.7-1.2C480.6,123.5,480.6,121.1,479,121L479,121z"/>
				</g>
			</g>
			<g>
				<g>
					<path class="st0" d="M419,132.7c-3-0.2-6.2-0.3-8.4,2c-1.9,1.9-2.6,5-3.1,7.5c-1.1,6.2,2,10.2,8.1,11.1
						c5.3,0.8,11.5-0.1,12.8-6.2c1.4-6.4-1.9-10.6-7.4-13.2c-1.4-0.7-2.6,1.4-1.2,2.1c3.6,1.7,6.2,3.7,6.4,8.1
						c0.3,5.4-3.6,7.4-8.5,7.1c-1.8-0.1-3.9-0.4-5.5-1.3c-2.7-1.7-2.8-4.8-2.3-7.5c0.3-1.7,0.8-3.8,1.9-5.2c1.8-2.2,4.6-2.1,7.2-1.9
						C420.6,135.2,420.6,132.8,419,132.7L419,132.7z"/>
				</g>
			</g>
			<ellipse class="st7" cx="508.5" cy="109.2" rx="6.4" ry="3.9"/>
			<ellipse class="st7" cx="502" cy="118.5" rx="6.5" ry="5.4"/>
			<circle class="st7" cx="499.1" cy="62.1" r="9.4"/>
			<ellipse class="st7" cx="441.1" cy="49.1" rx="10.7" ry="8.6"/>
		</g>
	</g>
	<g>
		<path class="st6" d="M278.5,300.8c13.5-21.8,50-1.3,80,24.5s54.9,47.3,43.8,65.5c-11,18.2-38.7,17.6-85.8-24.9
			S267,319.3,278.5,300.8z"/>
		<g>
			<g>
				<path class="st0" d="M286.4,307.1c-5.3,8.2,0.8,16.3,6.3,22.4c7.4,8.3,15.6,16,24.1,23.1c8.7,7.3,17.7,14.1,26.9,20.8
					c8.7,6.3,17.6,14.2,27.4,18.6c6.8,3,16.1,2.9,20.1-4.4c3.7-6.8,0.7-15.6-3.3-21.5c-5.4-8-13.1-14.2-20.7-20
					c-9.4-7.2-18.3-14.5-26.6-23c-13.2-13.3-36.3-37.4-53.8-16.3c-1.3,1.5,0.9,3.8,2.2,2.2c15.2-18.3,35.2,2.1,46.9,13.8
					c6.4,6.4,12.7,12.7,19.8,18.3c6.4,5,13.1,9.6,19.1,15c6.1,5.4,12.5,12,14.4,20.1c1.1,4.6,0.7,10.2-3.7,13
					c-4.7,3-10.6,1.2-15.1-1.2c-7.5-4.1-14.5-9.8-21.4-14.8c-7.8-5.6-15.5-11.3-23-17.3c-7.6-6.1-14.9-12.4-21.8-19.2
					c-6.4-6.3-21.4-18.2-14.9-28.2C290.3,307,287.5,305.4,286.4,307.1L286.4,307.1z"/>
			</g>
		</g>
		<g>
			<path class="st9" d="M302.1,308.3c-1.1-0.3-2.3,0.3-2.9,1.3c-0.5,1-0.4,2.3,0.1,3.3c0.5,1,1.5,1.8,2.6,1.8
				c1.2-0.1,2.2-1.2,2.3-2.4c0.2-1.2-0.3-2.4-1-3.4c-0.2-0.3-0.5-0.5-0.7-0.4"/>
			<g>
				<path class="st0" d="M302.6,306.3c-2.6-0.6-5.2,1-5.8,3.6c-0.6,2.7,0.9,5.9,3.6,6.8c2.6,0.9,5.2-1,5.8-3.5
					c0.5-2.2-0.7-7-3.7-6.7c-1.1,0.1-2.1,0.9-2.1,2.1c0,1,1,2.3,2.1,2.1c0.1,0,0.2,0,0.3,0c-0.4-0.1-0.7-0.2-1.1-0.3
					c0.2,0.1,0.5,1.4,0.4,1.8c-0.1,0.4-0.3,0.5-0.5,0.4c-0.5-0.3-1-2.4-0.1-2.2C304.2,311,305.3,306.9,302.6,306.3L302.6,306.3z"/>
			</g>
		</g>
		<g>
			<path class="st9" d="M307.1,322.9c-1.4,0.4-2.8,1-4,1.8c-0.4,0.2-0.8,0.6-0.6,1c0.2,0.5,0.8,0.5,1.3,0.4c0.7-0.1,1.4-0.3,2-0.7
				c0.6-0.3,1.2-0.9,1.3-1.6"/>
			<g>
				<path class="st0" d="M306.7,321.4c-1.5,0.4-3.1,1-4.4,1.9c-1.3,0.9-2.1,2.6-0.7,3.8c1.1,1,2.9,0.6,4.1,0.1c1.4-0.5,2.5-1.5,3-3
					c0.6-1.9-2.4-2.8-3-0.8c-0.1,0.4-0.6,0.7-1,0.8c-0.3,0.1-0.6,0.2-0.8,0.2c-0.8,0.2-0.3-0.1,0,0.4c0.1,0.3,0.1,0.5,0.2,0.8
					c-0.2,0.4-0.2,0.4,0.2,0.1c0.1-0.1,0.2-0.1,0.3-0.2c0.3-0.2,0.7-0.4,1-0.5c0.6-0.3,1.3-0.5,2-0.7
					C309.5,323.8,308.6,320.8,306.7,321.4L306.7,321.4z"/>
			</g>
		</g>
		<g>
			<path class="st9" d="M379.1,372.9c-1.4,0.4-2.8,1-4,1.8c-0.4,0.2-0.8,0.6-0.6,1c0.2,0.5,0.8,0.5,1.3,0.4c0.7-0.1,1.4-0.3,2-0.7
				c0.6-0.3,1.2-0.9,1.3-1.6"/>
			<g>
				<path class="st0" d="M378.6,371.3c-1.5,0.4-3.1,1-4.4,1.9c-1.3,0.9-2.1,2.6-0.7,3.8c1.1,1,2.9,0.6,4.1,0.1c1.4-0.5,2.5-1.5,3-3
					c0.6-1.9-2.4-2.8-3-0.8c-0.1,0.4-0.6,0.7-1,0.8c-0.3,0.1-0.6,0.2-0.8,0.2c-0.8,0.2-0.3-0.1,0,0.4c0.1,0.3,0.1,0.5,0.2,0.8
					c-0.2,0.4-0.2,0.4,0.2,0.1c0.1-0.1,0.2-0.1,0.3-0.2c0.3-0.2,0.7-0.4,1-0.5c0.6-0.3,1.3-0.5,2-0.7
					C381.4,373.8,380.6,370.8,378.6,371.3L378.6,371.3z"/>
			</g>
		</g>
		<g>
			<g>
				<path class="st0" d="M326.3,322.3c-3.5-2.8-8.5-1.6-10.5,2.4c-1.9,3.7-1.3,10.1,2.2,12.8c3.6,2.8,9.1-0.8,10.5-4.4
					c0.9-2.2,1-4.9,0.4-7.2c-0.5-1.9-1.5-2.9-3-4c-2.2-1.6-4.4,2.1-2.1,3.7c0.3,0.2,1,0.5,1.2,0.8c-0.3,0.3-0.3,0.6,0,1
					c0.1,0.6,0.1,1.2,0.1,1.8c-0.1,1.8-1.3,5.2-3.8,4.9c-2-0.2-2.4-4.1-2.2-5.6c0.2-1.8,2.1-5,4.3-3.3
					C325.4,327,328.4,324,326.3,322.3z"/>
			</g>
		</g>
		<g>
			<g>
				<path class="st0" d="M337.7,334.5c-5.1,2.7-6.6,9.2-5.7,14.5c0.8,4.4,4.1,10.4,9.4,7.4c7.1-4,6.8-25.6-3.2-22.1
					c-2.6,0.9-1.5,5,1.1,4.1c3-1,3.5,10.8,1.6,12.5c-0.3,0.8-1,1-2,0.5c-1.7,0.5-2.5-0.1-2.4-1.9c-0.3-1.3-0.5-2.6-0.4-3.9
					c0.2-2.9,1.1-5.9,3.8-7.3C342.3,336.9,340.1,333.2,337.7,334.5z"/>
			</g>
		</g>
		<g>
			<g>
				<path class="st0" d="M367.4,369c2-4.3-0.4-8.7-5-9.8c-4.4-1-8.9,1.3-10.3,5.7c-1.3,4,0.8,8,5.1,8.7c3.7,0.6,7.5-1.6,9.9-4.2
					c1.9-2-1.1-5-3-3c-1.4,1.5-6.2,5-7.9,2c-1.2-2,1-4.6,2.9-5.1c2-0.6,6,0.7,4.7,3.5C362.6,369.3,366.2,371.4,367.4,369z"/>
			</g>
		</g>
		<line class="st10" x1="283.5" y1="293.2" x2="250.4" y2="264.6"/>
		<line class="st10" x1="289.9" y1="291.4" x2="273.6" y2="252.5"/>
		<line class="st10" x1="295" y1="288.4" x2="291.1" y2="245.1"/>
		<line class="st10" x1="306" y1="291.2" x2="316.4" y2="246.6"/>
		<line class="st10" x1="315.1" y1="296.3" x2="332.2" y2="256.6"/>
		<line class="st10" x1="324.4" y1="298.2" x2="346.3" y2="263.2"/>
		<line class="st10" x1="334.9" y1="307.2" x2="362.3" y2="272.3"/>
		<line class="st10" x1="259.2" y1="255.8" x2="283.5" y2="293.2"/>
		<line class="st10" x1="236.7" y1="276.9" x2="278.5" y2="300.8"/>
		<line class="st10" x1="229.9" y1="292.4" x2="274.2" y2="303.7"/>
		<line class="st10" x1="232.8" y1="306.1" x2="273.5" y2="310.5"/>
		<line class="st10" x1="229.3" y1="316.7" x2="272.9" y2="317.2"/>
		<line class="st10" x1="240.3" y1="330" x2="275" y2="323.3"/>
		<line class="st10" x1="244.7" y1="344.7" x2="279.6" y2="330.1"/>
		<line class="st10" x1="254.9" y1="357.3" x2="287.3" y2="338.6"/>
		<line class="st10" x1="257.3" y1="367.1" x2="289.7" y2="341"/>
		<line class="st10" x1="266.9" y1="373.1" x2="297.1" y2="348.1"/>
		<line class="st10" x1="275.4" y1="387.7" x2="305.4" y2="355.8"/>
		<line class="st10" x1="287.4" y1="398.7" x2="312.4" y2="362.7"/>
		<line class="st10" x1="289.3" y1="413" x2="320" y2="369"/>
		<line class="st10" x1="304.4" y1="415.9" x2="327.4" y2="375.2"/>
		<line class="st10" x1="316.9" y1="417.3" x2="337.5" y2="383"/>
		<line class="st10" x1="323" y1="427.6" x2="342.2" y2="386.3"/>
		<line class="st10" x1="330.1" y1="439.8" x2="350.3" y2="391.5"/>
		<line class="st10" x1="350.5" y1="447.9" x2="357.8" y2="395.5"/>
		<line class="st10" x1="365.1" y1="452.8" x2="369.8" y2="400.3"/>
		<line class="st10" x1="444.5" y1="361.3" x2="400.4" y2="367.3"/>
		<line class="st10" x1="436.6" y1="350.2" x2="393.3" y2="357.9"/>
		<line class="st10" x1="433.3" y1="332.6" x2="390" y2="354.2"/>
		<line class="st10" x1="417.3" y1="325.2" x2="382.8" y2="346.9"/>
		<line class="st10" x1="406.8" y1="318.3" x2="375.9" y2="340.5"/>
		<line class="st10" x1="402.5" y1="306.2" x2="366.2" y2="331.9"/>
		<line class="st10" x1="388" y1="302.8" x2="358.5" y2="325.3"/>
		<line class="st10" x1="383.6" y1="289.7" x2="354.6" y2="322"/>
		<line class="st10" x1="368.3" y1="281.7" x2="346.2" y2="315.1"/>
		<line class="st10" x1="443" y1="397.1" x2="404.6" y2="385.5"/>
		<line class="st10" x1="440.5" y1="381.5" x2="404" y2="375.1"/>
		<line class="st10" x1="422.3" y1="429.6" x2="398.2" y2="396"/>
		<line class="st10" x1="436.1" y1="412.3" x2="402.4" y2="390.8"/>
		<line class="st10" x1="407.4" y1="440.2" x2="391.9" y2="400.2"/>
		<line class="st10" x1="386" y1="450.4" x2="380.2" y2="402.1"/>
	</g>
	
		<ellipse transform="matrix(0.3981 -0.9173 0.9173 0.3981 83.5374 601.0831)" class="st0" cx="499.8" cy="236.9" rx="18.5" ry="17.5"/>
	
		<ellipse transform="matrix(0.3981 -0.9173 0.9173 0.3981 95.4699 642.2739)" class="st0" cx="537.2" cy="248.4" rx="14.2" ry="13.4"/>
	
		<ellipse transform="matrix(0.3981 -0.9173 0.9173 0.3981 36.6698 622.5003)" class="st0" cx="492.7" cy="283.3" rx="14.2" ry="13.4"/>
</g>
</svg>
