<?xml version="1.0" encoding="utf-8"?>
<!-- Generator: Adobe Illustrator 19.2.0, SVG Export Plug-In . SVG Version: 6.00 Build 0)  -->
<svg version="1.1" id="Layer_1" xmlns="http://www.w3.org/2000/svg" xmlns:xlink="http://www.w3.org/1999/xlink" x="0px" y="0px"
	 viewBox="0 0 640 480" style="enable-background:new 0 0 640 480;" xml:space="preserve">
<style type="text/css">
	.st0{fill:#FFFFFF;}
	.st1{fill:none;stroke:#FFFFFF;stroke-width:4.2403;stroke-miterlimit:10;}
	.st2{fill:#FFFFFF;stroke:#FFFFFF;stroke-width:8.4807;stroke-miterlimit:10;}
	.st3{fill:none;stroke:#FFFFFF;stroke-width:8.4807;stroke-miterlimit:10;}
	.st4{fill:none;stroke:#FFFFFF;stroke-width:3.0015;stroke-miterlimit:10;}
	.st5{fill:none;stroke:#FFFFFF;stroke-width:6.0029;stroke-miterlimit:10;}
	.st6{fill:none;stroke:#FFFFFF;stroke-width:4.1973;stroke-miterlimit:10;}
	.st7{fill:none;stroke:#FFFFFF;stroke-width:2.408;stroke-miterlimit:10;}
	.st8{fill:none;stroke:#FFFFFF;stroke-width:4.2536;stroke-miterlimit:10;}
	.st9{fill:#662D91;}
	.st10{fill:none;stroke:#FFFFFF;stroke-width:4.1973;stroke-linecap:round;stroke-miterlimit:10;}
	.st11{fill:#FFFFFF;stroke:#FFFFFF;stroke-width:3.3569;stroke-linecap:round;stroke-linejoin:round;stroke-miterlimit:10;}
	.st12{fill:none;stroke:#FFFFFF;stroke-width:4.8731;stroke-linecap:round;stroke-linejoin:round;stroke-miterlimit:10;}
	.st13{fill:#FFFFFF;stroke:#FFFFFF;stroke-width:2.7346;stroke-linecap:round;stroke-linejoin:round;stroke-miterlimit:10;}
	.st14{fill:none;stroke:#FFFFFF;stroke-width:5;stroke-linecap:round;stroke-linejoin:round;stroke-miterlimit:10;}
	.st15{fill:none;stroke:#FFFFFF;stroke-width:5.2743;stroke-linecap:round;stroke-linejoin:round;stroke-miterlimit:10;}
	.st16{fill:none;stroke:#FFFFFF;stroke-width:1.5666;stroke-miterlimit:10;}
	.st17{fill:none;stroke:#FFFFFF;stroke-width:1.0329;stroke-miterlimit:10;}
	.st18{fill:none;stroke:#FFFFFF;stroke-width:4.1585;stroke-miterlimit:10;}
	.st19{fill:none;stroke:#FFFFFF;stroke-width:3.7088;stroke-miterlimit:10;}
	.st20{fill:none;stroke:#FFFFFF;stroke-width:2.0792;stroke-miterlimit:10;}
	.st21{fill:none;}
	.st22{fill:none;stroke:#FFFFFF;stroke-width:8.317;stroke-linecap:round;stroke-linejoin:round;stroke-miterlimit:10;}
	.st23{fill:none;stroke:#FFFFFF;stroke-width:15.1145;stroke-linecap:round;stroke-linejoin:round;stroke-miterlimit:10;}
	.st24{fill:none;stroke:#FFFFFF;stroke-width:3.7786;stroke-linecap:round;stroke-linejoin:round;stroke-miterlimit:10;}
	.st25{fill:#FFFFFF;stroke:#FFFFFF;stroke-width:3.7786;stroke-linecap:round;stroke-linejoin:round;stroke-miterlimit:10;}
	.st26{fill:#FFFFFF;stroke:#FFFFFF;stroke-width:4.4203;stroke-linecap:round;stroke-linejoin:round;stroke-miterlimit:10;}
	.st27{fill:#FFFFFF;stroke:#FFFFFF;stroke-width:3.7479;stroke-linecap:round;stroke-linejoin:round;stroke-miterlimit:10;}
</style>
<g>
	<path class="st0" d="M52.8,404.6c-0.8-1.7-1.3-3-2-4.2c-0.5-0.9-1.6-1.6-1.6-2.5c-0.1-1.6-0.1-3.7,0.8-4.7c0.9-1,3-1.2,4.6-1.1
		c1.1,0.1,2.2,1.2,3.3,1.8c2.9,1.6,5.7,1.7,8.4-0.4c0.8-0.6,1.6-1.3,2.5-1.6c1.9-0.6,3.7-0.3,5,1.3c1.2,1.5,1.4,3.1,0.3,4.8
		c-0.5,0.7-1,1.4-1.5,2.1c-2.5,3.8-2.5,5.6,0.2,9.3c2,2.7,2.1,4.8,0.3,6.5c-1.6,1.6-3.8,1.8-6.2,0.1c-3.7-2.6-7.2-3.2-10.9,0
		c-1.9,1.6-4,1.3-5.8-0.5c-1.8-1.8-1.6-3.8-0.3-5.8C51,408,51.8,406.3,52.8,404.6z"/>
	<path class="st0" d="M413.2,437c-6.3,0.3-9.9-4.7-8-9.2c1-2.2,2.7-4.1,4.1-6.2c4.4-6.2,7.4-12.8,7.4-20.6c0-5.9-1.6-11.1-5.2-15.7
		c-0.8-1.1-1.8-2.1-2.6-3.1c-2.9-3.9-3.1-7.7-0.6-10.4c2.8-2.9,6-2.9,10.3,0.1c3,2.1,5.8,4.4,9,6c10.3,5.1,20.1,4.1,29.1-3.3
		c1.6-1.3,3.1-2.7,4.7-3.8c3.1-2,6.1-1.6,8.6,0.9c2.3,2.3,3,5.1,1.2,8c-1.3,2.1-2.8,4.1-4.2,6.2c-7.5,11.5-8.1,26,1.8,36.1
		c0.9,1,1.7,2.1,2.3,3.3c1.5,2.7,0.9,5.4-1,7.5c-2.1,2.4-5,3.3-7.9,1.6c-3.1-1.7-6-4-9.2-5.7c-11.8-6.3-22.9-5-33.3,3.4
		C417.2,434.1,414.7,435.9,413.2,437z M447.2,410.7c0-5.4,0-10.5,0-16c-5.6,0-10.8,0-16.5,0c0,5.2,0,10.4,0,16
		C436.1,410.7,441.2,410.7,447.2,410.7z"/>
	<path class="st0" d="M129.8,113.3c-4.9-0.7-7.2-2.5-8-6.1c-0.5-2.4-0.8-4.9-1.4-7.3c-3-13.3-12.9-22-26.5-23.2c-2-0.2-4.1,0-6-0.5
		c-3.3-1-5.5-3.2-5.3-6.9c0.2-3.6,2.2-5.8,5.7-6.6c4.2-0.9,8.5-1.3,12.5-2.5c12-3.5,19-11.5,20.5-24.1c0.2-1.6,0.2-3.2,0.5-4.7
		c0.8-3.2,2.8-5.1,6.2-5.3c3.4-0.2,5.7,1.5,6.8,4.5c0.7,1.9,0.8,4,1,6c1.7,15,11.5,24.7,26.5,26c6.6,0.6,9.8,2.8,9.8,6.9
		c0,4-2.8,6-9.6,7.5c-4.1,0.9-8.3,2.1-12.1,4c-9,4.4-13.9,11.8-14.6,21.9c-0.1,1.8,0,3.9-0.9,5.2C133.5,110.3,131.2,112,129.8,113.3
		z M117,68.5c4,4.1,7.9,8.1,11.9,12.1c3.2-3.1,7.1-6.7,10.8-10.2c-3.9-3.9-7.9-7.9-11.7-11.8C124.2,62,120.4,65.5,117,68.5z"/>
	<path class="st0" d="M532.6,83.3c-1.2-1.2-3.5-2.8-4.9-5.1c-1.1-1.8-1-4.4-1.4-6.6c-2.7-14.5-12.6-23.4-27.4-24.5
		c-1.8-0.1-3.6-0.2-5.3-0.7c-3.4-0.9-5.4-3.2-5.3-6.9c0.1-3.6,2.1-5.8,5.7-6.5c2.4-0.5,4.9-0.8,7.3-1.2
		c15.1-2.6,23.5-11.1,25.7-26.2c0.2-1.3,0.2-2.7,0.5-4c0.7-3.3,2.9-5,6.2-5.2c3.3-0.2,5.7,1.2,6.8,4.4c0.6,1.7,0.8,3.5,0.9,5.3
		c1.6,15.5,10.3,24.6,25.7,26.7c7.9,1.1,10.5,2.7,10.6,6.9c0.1,4.4-2.7,6.1-10.8,7.8c-11.7,2.5-21.2,7.9-24.6,20.3
		c-0.8,2.8-0.6,5.8-1.1,8.7C540.5,80.6,537.7,83.3,532.6,83.3z M534.5,50.6c2.9-3.4,6.3-7.5,9-10.6c-2.7-2.9-6.4-7-10-11
		c-3.7,3.3-7.7,6.9-11.1,10C526.4,42.8,530.4,46.7,534.5,50.6z"/>
	<path class="st0" d="M54.5,202.9c-0.7,1.4-0.9,2.4-1.5,3.2c-2.8,3.9-3,7.5,0.2,11.3c2.1,2.6,1.3,5.9-1.4,6.8
		c-1.4,0.4-3.3-0.1-4.8-0.6c-1.5-0.5-2.7-1.6-4.2-2.1c-2.3-0.8-4.4-0.1-6.5,1.3c-2.6,1.7-4.7,1.6-6.2,0c-1.8-1.8-1.7-3.6,0.2-6.5
		c2.6-3.9,2.8-5.8,0-9.3c-2.3-2.9-1.8-5.5-0.3-6.9c1.9-1.8,3.5-1.7,6.5,0.4c4.1,2.8,5.4,2.8,10-0.4c1.8-1.3,3.7-2,5.5-0.6
		C53.2,200.3,53.8,201.8,54.5,202.9z"/>
	<g>
		<path class="st0" d="M338.9,153.3c25.8,12.3,65.9,39.6,80.2,95c16.6,63.8-19.1,138-88.1,156c-10,2.6-19.9,3.8-29.5,3.8
			c-43.7,0-82.1-25.8-94.1-72c-8.7-33.7,7.9-78.1,48.2-88.6c6.6-1.7,12.8-2.5,18.6-2.5c25.9,0,43.9,15.9,49.8,38.3
			c5.9-1.5,7.2-12.3,4.7-22c-5.7-22.1-33.5-39.4-64.2-39.4c-6.6,0-13.4,0.8-20.1,2.5c-49.5,12.8-89.2,71.2-71.9,137.9
			c10.8,41.5,39.9,70.9,62.7,87.4c-25.8-12.3-65.9-39.6-80.2-95c-16.6-63.8,19.1-138,88.1-156c10-2.6,19.9-3.8,29.5-3.8
			c43.7,0,82.1,25.8,94.1,72c8.7,33.7-7.9,78.1-48.2,88.6c-6.6,1.7-12.8,2.5-18.6,2.5c-25.9,0-43.9-15.9-49.8-38.3
			c-5.9,1.5-7.2,12.3-4.7,22c5.7,22.1,33.5,39.4,64.2,39.4c6.6,0,13.4-0.8,20.1-2.5c49.5-12.8,89.2-71.2,71.9-137.9
			C390.8,199.3,361.7,169.9,338.9,153.3 M287,336.9c3,0,6-0.4,9-1.2c19-4.9,30.4-24.2,25.5-43.1c-4.1-15.9-18.5-26.4-34.2-26.4
			c-3,0-6,0.4-9,1.2c-19,4.9-30.4,24.2-25.5,43.1C256.9,326.4,271.2,336.9,287,336.9 M338.9,146.8c-2.2,0-4.3,1.1-5.5,3.1
			c-1.7,2.9-1,6.5,1.7,8.5c17.7,12.9,49.1,41,60.2,83.9c7.6,29.4,4,59.3-10.3,84.4c-13.1,23-33.9,39.7-57,45.7
			c-6,1.6-12.2,2.3-18.5,2.3c-27.5,0-52.9-15.2-58-34.6c-0.1-0.4-0.2-0.9-0.3-1.3c10.2,16.2,27.6,25.7,48.5,25.7
			c6.5,0,13.3-0.9,20.2-2.7c20.4-5.3,37-19.2,46.7-39c8.7-17.9,11-38.8,6.1-57.4c-6.1-23.6-19.1-43.2-37.6-56.9
			c-17.7-13.1-39.4-19.9-62.8-20c-10.3,0-20.8,1.4-31.2,4.1c-34.3,8.9-62.8,31.6-80.2,64c-16.5,30.6-21,67-12.5,99.8
			c6.7,25.6,19.3,48,37.5,66.5c13,13.2,28.6,24.2,46.2,32.6c0.9,0.4,1.8,0.6,2.8,0.6c2.2,0,4.3-1.1,5.5-3.1c1.7-2.9,1-6.5-1.7-8.5
			c-17.7-12.9-49.1-41-60.2-83.9c-7.6-29.4-4-59.3,10.3-84.4c13.1-23,33.9-39.7,57-45.7c6-1.6,12.2-2.3,18.5-2.3
			c27.5,0,52.9,15.2,58,34.6c0.1,0.4,0.2,0.9,0.3,1.3c-10.2-16.2-27.6-25.7-48.5-25.7c-6.5,0-13.3,0.9-20.2,2.7
			c-20.4,5.3-37,19.2-46.7,39c-8.7,17.9-11,38.8-6.1,57.4c6.1,23.6,19.1,43.2,37.6,56.9c17.7,13.1,39.4,20,62.8,20
			c10.3,0,20.8-1.4,31.2-4.1c34.3-8.9,62.8-31.6,80.2-64c16.5-30.6,21-67,12.5-99.8c-6.7-25.6-19.3-48-37.5-66.5
			c-13-13.2-28.6-24.2-46.2-32.6C340.8,147,339.9,146.8,338.9,146.8L338.9,146.8z M287,330.4c-13.2,0-24.7-8.9-28-21.6
			c-1.9-7.5-0.8-15.2,3.1-21.9c3.9-6.7,10.2-11.4,17.8-13.4c2.4-0.6,4.9-0.9,7.4-0.9c13.2,0,24.7,8.9,28,21.6
			c1.9,7.5,0.8,15.2-3.1,21.9c-3.9,6.7-10.2,11.4-17.8,13.4C291.9,330.1,289.5,330.4,287,330.4L287,330.4z"/>
	</g>
	<circle class="st0" cx="287.1" cy="303.7" r="35.5"/>
	<circle class="st0" cx="270.9" cy="69.9" r="19.3"/>
	<circle class="st0" cx="518.6" cy="294" r="14.4"/>
</g>
</svg>
