<?xml version="1.0" encoding="utf-8"?>
<!-- Generator: Adobe Illustrator 19.2.0, SVG Export Plug-In . SVG Version: 6.00 Build 0)  -->
<svg version="1.1" id="Layer_1" xmlns="http://www.w3.org/2000/svg" xmlns:xlink="http://www.w3.org/1999/xlink" x="0px" y="0px"
	 viewBox="0 0 640 480" style="enable-background:new 0 0 640 480;" xml:space="preserve">
<style type="text/css">
	.st0{fill:#FFFFFF;}
	.st1{fill:none;stroke:#FFFFFF;stroke-width:4.2403;stroke-miterlimit:10;}
	.st2{fill:#FFFFFF;stroke:#FFFFFF;stroke-width:8.4807;stroke-miterlimit:10;}
	.st3{fill:none;stroke:#FFFFFF;stroke-width:8.4807;stroke-miterlimit:10;}
	.st4{fill:none;stroke:#FFFFFF;stroke-width:3.0015;stroke-miterlimit:10;}
	.st5{fill:none;stroke:#FFFFFF;stroke-width:6.0029;stroke-miterlimit:10;}
	.st6{fill:none;stroke:#FFFFFF;stroke-width:4.1973;stroke-miterlimit:10;}
	.st7{fill:none;stroke:#FFFFFF;stroke-width:2.408;stroke-miterlimit:10;}
	.st8{fill:none;stroke:#FFFFFF;stroke-width:4.2536;stroke-miterlimit:10;}
	.st9{fill:#662D91;}
	.st10{fill:none;stroke:#FFFFFF;stroke-width:4.1973;stroke-linecap:round;stroke-miterlimit:10;}
	.st11{fill:#FFFFFF;stroke:#FFFFFF;stroke-width:3.3569;stroke-linecap:round;stroke-linejoin:round;stroke-miterlimit:10;}
	.st12{fill:none;stroke:#FFFFFF;stroke-width:4.8731;stroke-linecap:round;stroke-linejoin:round;stroke-miterlimit:10;}
	.st13{fill:#FFFFFF;stroke:#FFFFFF;stroke-width:2.7346;stroke-linecap:round;stroke-linejoin:round;stroke-miterlimit:10;}
	.st14{fill:none;stroke:#FFFFFF;stroke-width:5;stroke-linecap:round;stroke-linejoin:round;stroke-miterlimit:10;}
	.st15{fill:none;stroke:#FFFFFF;stroke-width:5.2743;stroke-linecap:round;stroke-linejoin:round;stroke-miterlimit:10;}
	.st16{fill:none;stroke:#FFFFFF;stroke-width:1.5666;stroke-miterlimit:10;}
	.st17{fill:none;stroke:#FFFFFF;stroke-width:1.0329;stroke-miterlimit:10;}
	.st18{fill:none;stroke:#FFFFFF;stroke-width:4.1585;stroke-miterlimit:10;}
	.st19{fill:none;stroke:#FFFFFF;stroke-width:3.7088;stroke-miterlimit:10;}
	.st20{fill:none;stroke:#FFFFFF;stroke-width:2.0792;stroke-miterlimit:10;}
	.st21{fill:none;}
	.st22{fill:none;stroke:#FFFFFF;stroke-width:8.317;stroke-linecap:round;stroke-linejoin:round;stroke-miterlimit:10;}
	.st23{fill:none;stroke:#FFFFFF;stroke-width:15.1145;stroke-linecap:round;stroke-linejoin:round;stroke-miterlimit:10;}
	.st24{fill:none;stroke:#FFFFFF;stroke-width:3.7786;stroke-linecap:round;stroke-linejoin:round;stroke-miterlimit:10;}
	.st25{fill:#FFFFFF;stroke:#FFFFFF;stroke-width:3.7786;stroke-linecap:round;stroke-linejoin:round;stroke-miterlimit:10;}
	.st26{fill:#FFFFFF;stroke:#FFFFFF;stroke-width:4.4203;stroke-linecap:round;stroke-linejoin:round;stroke-miterlimit:10;}
	.st27{fill:#FFFFFF;stroke:#FFFFFF;stroke-width:3.7479;stroke-linecap:round;stroke-linejoin:round;stroke-miterlimit:10;}
</style>
<path class="st0" d="M120.5,189.1c-0.8-1.7-1.3-3-2-4.2c-0.5-0.9-1.6-1.6-1.6-2.5c-0.1-1.6-0.2-3.7,0.8-4.7c0.9-1,3-1.2,4.6-1.2
	c1.1,0.1,2.2,1.2,3.4,1.8c2.9,1.6,5.7,1.7,8.5-0.4c0.8-0.6,1.6-1.3,2.5-1.6c1.9-0.6,3.8-0.3,5.1,1.3c1.2,1.5,1.4,3.2,0.3,4.8
	c-0.5,0.7-1,1.4-1.5,2.1c-2.6,3.8-2.5,5.6,0.2,9.4c2,2.8,2.1,4.8,0.3,6.6c-1.6,1.6-3.8,1.8-6.3,0.1c-3.7-2.6-7.2-3.2-11,0
	c-1.9,1.6-4.1,1.3-5.8-0.5c-1.8-1.8-1.6-3.8-0.3-5.9C118.8,192.6,119.6,190.8,120.5,189.1z"/>
<path class="st0" d="M260,45.9c-1.1-2.5-1.9-4.4-2.9-6.2c-0.7-1.3-2.3-2.4-2.4-3.7c-0.1-2.4-0.2-5.5,1.1-6.9
	c1.3-1.5,4.5-1.8,6.8-1.7c1.7,0.1,3.3,1.8,5,2.7c4.3,2.4,8.4,2.5,12.5-0.6c1.2-0.9,2.4-1.9,3.7-2.4c2.8-0.9,5.5-0.5,7.5,2
	c1.7,2.2,2,4.6,0.4,7.1c-0.7,1.1-1.5,2-2.2,3.1c-3.8,5.7-3.7,8.2,0.3,13.8c2.9,4.1,3.1,7.1,0.5,9.6c-2.4,2.4-5.6,2.7-9.2,0.2
	c-5.5-3.8-10.7-4.7-16.2-0.1c-2.9,2.4-6,1.9-8.6-0.7c-2.7-2.7-2.3-5.6-0.4-8.7C257.4,51,258.6,48.4,260,45.9z"/>
<path class="st0" d="M497.8,139.8c-5-0.7-7.3-2.5-8-6.1c-0.5-2.4-0.8-4.9-1.4-7.4c-3-13.4-13-22.1-26.7-23.3c-2-0.2-4.2,0-6.1-0.5
	c-3.3-1-5.5-3.3-5.3-7c0.2-3.6,2.2-5.9,5.7-6.6c4.2-0.9,8.5-1.4,12.6-2.6c12.1-3.6,19.1-11.6,20.6-24.3c0.2-1.6,0.2-3.2,0.5-4.7
	c0.8-3.2,2.8-5.1,6.2-5.3c3.4-0.2,5.7,1.5,6.8,4.5c0.7,1.9,0.8,4,1,6c1.7,15.1,11.5,24.8,26.6,26.2c6.6,0.6,9.9,2.9,9.9,6.9
	c0,4-2.8,6-9.6,7.5c-4.2,0.9-8.4,2.2-12.2,4c-9.1,4.4-14,11.9-14.7,22.1c-0.1,1.8,0,3.9-0.9,5.3
	C501.5,136.8,499.2,138.5,497.8,139.8z M484.9,94.7c4,4.1,7.9,8.1,12,12.2c3.3-3.1,7.2-6.8,10.8-10.2c-3.9-3.9-7.9-8-11.8-11.9
	C492.2,88.2,488.3,91.7,484.9,94.7z"/>
<g>
	<path class="st0" d="M331.3,123.8l54.6,41l54.7,41.1c0,0-31.2,49-64.6,57.3c-6.8,1.7-13.1,2.4-19,2.4c-11.2,0-20.7-2.5-27.4-5
		c6.6,8.8,14.7,23.6,15.5,43.8c1.3,34.4-37,77.9-37,77.9l-54.6-41l-54.7-41.1c0,0,31.2-48.9,64.5-57.2c6.7-1.7,13.1-2.4,19-2.4
		c11.3,0,20.7,2.5,27.5,5c-6.6-8.8-14.7-23.6-15.5-43.9C293,167.4,331.3,123.8,331.3,123.8 M331.3,119.8c-1.1,0-2.2,0.5-3,1.4
		c-0.4,0.5-9.9,11.3-19.4,26.6c-12.9,20.9-19.2,39.1-18.6,54.1c0.6,15.2,5.1,27.6,10.2,36.8c-6-1.4-12-2.1-18.2-2.1
		c-6.7,0-13.4,0.8-19.9,2.5c-14.6,3.7-30.4,14.7-46.8,32.9c-12,13.4-19.8,25.5-20.2,26c-1.1,1.8-0.7,4.1,1,5.3l54.7,41.1l54.6,41
		c0.7,0.5,1.6,0.8,2.4,0.8c1.1,0,2.2-0.5,3-1.4c0.4-0.5,9.9-11.3,19.4-26.6c12.9-20.8,19.2-39,18.6-54.1
		c-0.6-15.2-5.1-27.6-10.2-36.8c5.9,1.4,12,2,18.1,2c6.7,0,13.4-0.8,20-2.5c14.6-3.7,30.4-14.8,46.8-33
		c12.1-13.4,19.9-25.5,20.2-26.1c1.1-1.8,0.7-4.1-1-5.3l-54.7-41.1l-54.6-41C333,120,332.2,119.8,331.3,119.8L331.3,119.8z"/>
</g>
<line class="st23" x1="311.6" y1="109" x2="460.3" y2="220.6"/>
<line class="st23" x1="179.1" y1="285.4" x2="327.8" y2="397.1"/>
<ellipse transform="matrix(0.6005 -0.7996 0.7996 0.6005 -94.7199 354.1273)" class="st24" cx="307.1" cy="271.9" rx="4.7" ry="4.7"/>
<ellipse transform="matrix(0.6005 -0.7996 0.7996 0.6005 -123.7668 367.3539)" class="st25" cx="305.8" cy="307.5" rx="2.5" ry="2.5"/>
<ellipse transform="matrix(0.6005 -0.7996 0.7996 0.6005 -143.9043 345.1339)" class="st26" cx="273.5" cy="316.6" rx="2.8" ry="2.8"/>
<path class="st27" d="M328.5,246.5c3.4,1.6,13.6,5.1,31.5,6.3c21.1,1.4,35.7-15.5,35.7-15.5l-41.2-30.9l-0.4-0.3l-41.2-30.9
	c0,0-12.2,18.7-4.9,38.6c6.1,16.9,13.6,26.6,16.1,29.4L328.5,246.5z"/>
<circle class="st0" cx="484.9" cy="279.7" r="14.7"/>
</svg>
