<?xml version="1.0" encoding="utf-8"?>
<!-- Generator: Adobe Illustrator 19.2.0, SVG Export Plug-In . SVG Version: 6.00 Build 0)  -->
<svg version="1.1" id="Layer_1" xmlns="http://www.w3.org/2000/svg" xmlns:xlink="http://www.w3.org/1999/xlink" x="0px" y="0px"
	 viewBox="0 0 640 480" style="enable-background:new 0 0 640 480;" xml:space="preserve">
<style type="text/css">
	.st0{fill:#FFFFFF;}
	.st1{fill:none;stroke:#FFFFFF;stroke-width:4.2403;stroke-miterlimit:10;}
	.st2{fill:#FFFFFF;stroke:#FFFFFF;stroke-width:8.4807;stroke-miterlimit:10;}
	.st3{fill:none;stroke:#FFFFFF;stroke-width:8.4807;stroke-miterlimit:10;}
	.st4{fill:none;stroke:#FFFFFF;stroke-width:3.0015;stroke-miterlimit:10;}
	.st5{fill:none;stroke:#FFFFFF;stroke-width:6.0029;stroke-miterlimit:10;}
	.st6{fill:none;stroke:#FFFFFF;stroke-width:4.1973;stroke-miterlimit:10;}
	.st7{fill:none;stroke:#FFFFFF;stroke-width:2.408;stroke-miterlimit:10;}
	.st8{fill:none;stroke:#FFFFFF;stroke-width:4.2536;stroke-miterlimit:10;}
	.st9{fill:#662D91;}
	.st10{fill:none;stroke:#FFFFFF;stroke-width:4.1973;stroke-linecap:round;stroke-miterlimit:10;}
	.st11{fill:#FFFFFF;stroke:#FFFFFF;stroke-width:3.3569;stroke-linecap:round;stroke-linejoin:round;stroke-miterlimit:10;}
	.st12{fill:none;stroke:#FFFFFF;stroke-width:4.8731;stroke-linecap:round;stroke-linejoin:round;stroke-miterlimit:10;}
	.st13{fill:#FFFFFF;stroke:#FFFFFF;stroke-width:2.7346;stroke-linecap:round;stroke-linejoin:round;stroke-miterlimit:10;}
	.st14{fill:none;stroke:#FFFFFF;stroke-width:5;stroke-linecap:round;stroke-linejoin:round;stroke-miterlimit:10;}
	.st15{fill:none;stroke:#FFFFFF;stroke-width:5.2743;stroke-linecap:round;stroke-linejoin:round;stroke-miterlimit:10;}
	.st16{fill:none;stroke:#FFFFFF;stroke-width:1.5666;stroke-miterlimit:10;}
	.st17{fill:none;stroke:#FFFFFF;stroke-width:1.0329;stroke-miterlimit:10;}
	.st18{fill:none;stroke:#FFFFFF;stroke-width:4.1585;stroke-miterlimit:10;}
	.st19{fill:none;stroke:#FFFFFF;stroke-width:3.7088;stroke-miterlimit:10;}
	.st20{fill:none;stroke:#FFFFFF;stroke-width:2.0792;stroke-miterlimit:10;}
	.st21{fill:none;}
	.st22{fill:none;stroke:#FFFFFF;stroke-width:8.317;stroke-linecap:round;stroke-linejoin:round;stroke-miterlimit:10;}
	.st23{fill:none;stroke:#FFFFFF;stroke-width:15.1145;stroke-linecap:round;stroke-linejoin:round;stroke-miterlimit:10;}
	.st24{fill:none;stroke:#FFFFFF;stroke-width:3.7786;stroke-linecap:round;stroke-linejoin:round;stroke-miterlimit:10;}
	.st25{fill:#FFFFFF;stroke:#FFFFFF;stroke-width:3.7786;stroke-linecap:round;stroke-linejoin:round;stroke-miterlimit:10;}
	.st26{fill:#FFFFFF;stroke:#FFFFFF;stroke-width:4.4203;stroke-linecap:round;stroke-linejoin:round;stroke-miterlimit:10;}
	.st27{fill:#FFFFFF;stroke:#FFFFFF;stroke-width:3.7479;stroke-linecap:round;stroke-linejoin:round;stroke-miterlimit:10;}
</style>
<g>
	<path class="st1" d="M504.9,236.4c8.5-2.6,17.2-0.2,23.2,5.5c46-43.8,67.8-90,53.4-126C555.1,50,417.9,43.1,275,100.3
		c-142.9,57.2-237.4,157-211,222.8s163.6,72.8,306.5,15.6c46.4-18.6,87.8-41.7,121.5-66.6c-1.2-1.8-2.2-3.9-2.9-6.1
		C485.2,253.4,492.3,240.2,504.9,236.4z M357.3,301.2c-106.5,42.7-208.6,38.1-228-10.3c-2.7-6.6-3.6-13.7-3-21.2
		c-8.1-2.1-15-8.3-17.7-16.9c-4-13.2,3.4-27.1,16.6-31.2c7.2-2.2,14.6-1,20.5,2.7c26.4-35.8,77.4-72.7,141.4-98.3
		c106.5-42.7,208.6-38.1,228,10.3C534.5,184.7,463.8,258.5,357.3,301.2z"/>
	<path class="st1" d="M515.1,136.4c-19.4-48.4-121.4-53-228-10.3c-64,25.6-115,62.5-141.4,98.3c4.9,3.1,8.9,7.9,10.7,13.9
		c4,13.2-3.4,27.1-16.6,31.2c-4.6,1.4-9.2,1.4-13.5,0.3c-0.6,7.4,0.4,14.5,3,21.2c19.4,48.4,121.4,53,228,10.3
		S534.5,184.7,515.1,136.4z M344.3,272.2c-67,26.8-131.7,22.8-144.5-9.1c-12.8-31.8,31.2-79.4,98.3-106.3c26-10.4,51.6-16.2,74-17.5
		c1.6-7,6.8-13,14.1-15.2c10.9-3.3,22.5,2.8,25.8,13.8c0.5,1.7,0.8,3.4,0.9,5.1c14.7,4.2,25.3,11.9,29.7,22.9
		C455.4,197.7,411.4,245.3,344.3,272.2z"/>
	<path class="st1" d="M412.9,143c0.4,9.2-5.4,17.9-14.6,20.7c-10.9,3.3-22.5-2.8-25.8-13.8c-1.1-3.6-1.1-7.2-0.4-10.6
		c-22.4,1.3-48,7-74,17.5c-67,26.8-111,74.4-98.3,106.3c12.8,31.8,77.4,35.9,144.5,9.1c67-26.8,111-74.4,98.3-106.3
		C438.2,154.9,427.6,147.2,412.9,143z M329.5,244c-17.3,5.3-35.5-4.5-40.8-21.8c-5.3-17.3,4.5-35.5,21.8-40.8
		c17.3-5.3,35.5,4.5,40.8,21.8C356.5,220.4,346.7,238.7,329.5,244z"/>
	<path class="st2" d="M412.9,143c-0.1-1.7-0.3-3.4-0.9-5.1c-3.3-10.9-14.9-17.1-25.8-13.8c-7.3,2.2-12.5,8.2-14.1,15.2
		c-0.8,3.4-0.7,7,0.4,10.6c3.3,10.9,14.9,17.1,25.8,13.8C407.6,160.9,413.4,152.2,412.9,143z"/>
	<g>
		<path class="st0" d="M320,180c14,0,27,9.1,31.3,23.2c5.3,17.3-4.5,35.5-21.8,40.8c-3.2,1-6.4,1.4-9.5,1.4c-14,0-27-9.1-31.3-23.2
			c-5.3-17.3,4.5-35.5,21.8-40.8C313.6,180.5,316.8,180,320,180 M320,171.5c-4.1,0-8.1,0.6-12,1.8c-10.5,3.2-19.2,10.3-24.3,20
			c-5.2,9.7-6.3,20.8-3.1,31.4c2.6,8.6,7.8,16,15.1,21.3c7,5.1,15.6,7.9,24.3,7.9c4.1,0,8.1-0.6,12-1.8c10.5-3.2,19.2-10.3,24.3-20
			c5.2-9.7,6.3-20.8,3.1-31.4c-2.6-8.6-7.8-16-15.1-21.3C337.2,174.3,328.6,171.5,320,171.5L320,171.5z"/>
	</g>
	<path class="st3" d="M156.4,238.3c-1.8-6-5.7-10.8-10.7-13.9c-5.9-3.7-13.3-4.9-20.5-2.7c-13.2,4-20.6,18-16.6,31.2
		c2.6,8.6,9.5,14.8,17.7,16.9c4.3,1.1,8.9,1.1,13.5-0.3C153,265.4,160.4,251.5,156.4,238.3z"/>
	<path class="st3" d="M534.5,252.2c-1.2-4.1-3.5-7.6-6.4-10.3c-6-5.7-14.8-8.1-23.2-5.5c-12.5,3.8-19.6,17.1-15.8,29.6
		c0.7,2.2,1.7,4.2,2.9,6.1c5.6,8.6,16.4,12.9,26.8,9.7C531.2,278,538.3,264.7,534.5,252.2z"/>
</g>
</svg>
