<?xml version="1.0" encoding="utf-8"?>
<!-- Generator: Adobe Illustrator 19.2.0, SVG Export Plug-In . SVG Version: 6.00 Build 0)  -->
<svg version="1.1" id="Layer_1" xmlns="http://www.w3.org/2000/svg" xmlns:xlink="http://www.w3.org/1999/xlink" x="0px" y="0px"
	 viewBox="0 0 640 480" style="enable-background:new 0 0 640 480;" xml:space="preserve">
<style type="text/css">
	.st0{fill:#FFFFFF;}
	.st1{fill:none;stroke:#FFFFFF;stroke-width:4.2403;stroke-miterlimit:10;}
	.st2{fill:#FFFFFF;stroke:#FFFFFF;stroke-width:8.4807;stroke-miterlimit:10;}
	.st3{fill:none;stroke:#FFFFFF;stroke-width:8.4807;stroke-miterlimit:10;}
	.st4{fill:none;stroke:#FFFFFF;stroke-width:3.0015;stroke-miterlimit:10;}
	.st5{fill:none;stroke:#FFFFFF;stroke-width:6.0029;stroke-miterlimit:10;}
	.st6{fill:none;stroke:#FFFFFF;stroke-width:4.1973;stroke-miterlimit:10;}
	.st7{fill:none;stroke:#FFFFFF;stroke-width:2.408;stroke-miterlimit:10;}
	.st8{fill:none;stroke:#FFFFFF;stroke-width:4.2536;stroke-miterlimit:10;}
	.st9{fill:#662D91;}
	.st10{fill:none;stroke:#FFFFFF;stroke-width:4.1973;stroke-linecap:round;stroke-miterlimit:10;}
	.st11{fill:#FFFFFF;stroke:#FFFFFF;stroke-width:3.3569;stroke-linecap:round;stroke-linejoin:round;stroke-miterlimit:10;}
	.st12{fill:none;stroke:#FFFFFF;stroke-width:4.8731;stroke-linecap:round;stroke-linejoin:round;stroke-miterlimit:10;}
	.st13{fill:#FFFFFF;stroke:#FFFFFF;stroke-width:2.7346;stroke-linecap:round;stroke-linejoin:round;stroke-miterlimit:10;}
	.st14{fill:none;stroke:#FFFFFF;stroke-width:5;stroke-linecap:round;stroke-linejoin:round;stroke-miterlimit:10;}
	.st15{fill:none;stroke:#FFFFFF;stroke-width:5.2743;stroke-linecap:round;stroke-linejoin:round;stroke-miterlimit:10;}
	.st16{fill:none;stroke:#FFFFFF;stroke-width:1.5666;stroke-miterlimit:10;}
	.st17{fill:none;stroke:#FFFFFF;stroke-width:1.0329;stroke-miterlimit:10;}
	.st18{fill:none;stroke:#FFFFFF;stroke-width:4.1585;stroke-miterlimit:10;}
	.st19{fill:none;stroke:#FFFFFF;stroke-width:3.7088;stroke-miterlimit:10;}
	.st20{fill:none;stroke:#FFFFFF;stroke-width:2.0792;stroke-miterlimit:10;}
	.st21{fill:none;}
	.st22{fill:none;stroke:#FFFFFF;stroke-width:8.317;stroke-linecap:round;stroke-linejoin:round;stroke-miterlimit:10;}
	.st23{fill:none;stroke:#FFFFFF;stroke-width:15.1145;stroke-linecap:round;stroke-linejoin:round;stroke-miterlimit:10;}
	.st24{fill:none;stroke:#FFFFFF;stroke-width:3.7786;stroke-linecap:round;stroke-linejoin:round;stroke-miterlimit:10;}
	.st25{fill:#FFFFFF;stroke:#FFFFFF;stroke-width:3.7786;stroke-linecap:round;stroke-linejoin:round;stroke-miterlimit:10;}
	.st26{fill:#FFFFFF;stroke:#FFFFFF;stroke-width:4.4203;stroke-linecap:round;stroke-linejoin:round;stroke-miterlimit:10;}
	.st27{fill:#FFFFFF;stroke:#FFFFFF;stroke-width:3.7479;stroke-linecap:round;stroke-linejoin:round;stroke-miterlimit:10;}
</style>
<path class="st0" d="M368,112.2c-1.1-1.1-3.2-2.6-4.4-4.7c-1-1.7-0.9-4-1.3-6c-2.5-13.3-11.5-21.3-25-22.4c-1.6-0.1-3.3-0.2-4.9-0.6
	c-3.1-0.9-5-2.9-4.8-6.3c0.1-3.3,1.9-5.3,5.2-6c2.2-0.4,4.5-0.7,6.7-1.1c13.8-2.3,21.4-10.1,23.5-23.9c0.2-1.2,0.2-2.5,0.5-3.7
	c0.6-3,2.6-4.6,5.6-4.8c3-0.2,5.2,1.1,6.2,4c0.5,1.5,0.7,3.2,0.9,4.8c1.5,14.2,9.4,22.5,23.4,24.3c7.2,1,9.6,2.5,9.7,6.3
	c0.1,4-2.4,5.5-9.8,7.1c-10.6,2.2-19.3,7.2-22.5,18.5c-0.7,2.5-0.6,5.3-1,7.9C375.2,109.7,372.6,112.2,368,112.2z M369.7,82.4
	c2.6-3.1,5.8-6.8,8.2-9.7c-2.4-2.7-5.8-6.4-9.1-10.1c-3.4,3-7,6.3-10.1,9.1C362.3,75.2,366,78.8,369.7,82.4z"/>
<path class="st0" d="M268.7,100.1c-0.6,1.3-0.8,2.2-1.4,2.9c-2.5,3.5-2.7,6.8,0.2,10.4c1.9,2.3,1.2,5.4-1.2,6.2
	c-1.3,0.4-3-0.1-4.4-0.6c-1.3-0.4-2.5-1.4-3.8-1.9c-2.1-0.7-4-0.1-5.9,1.1c-2.3,1.6-4.3,1.4-5.7,0c-1.6-1.6-1.6-3.3,0.2-6
	c2.4-3.5,2.6-5.3,0-8.5c-2.1-2.6-1.6-5-0.2-6.3c1.7-1.6,3.2-1.5,6,0.3c3.7,2.5,4.9,2.5,9.1-0.4c1.6-1.2,3.3-1.9,5-0.5
	C267.5,97.8,268,99.1,268.7,100.1z"/>
<path class="st0" d="M499.8,144.4c-0.6,1.3-0.8,2.2-1.4,2.9c-2.5,3.5-2.7,6.8,0.2,10.4c1.9,2.3,1.2,5.4-1.2,6.2
	c-1.3,0.4-3-0.1-4.4-0.6c-1.3-0.4-2.5-1.4-3.8-1.9c-2.1-0.7-4-0.1-5.9,1.1c-2.3,1.6-4.3,1.4-5.7,0c-1.6-1.6-1.6-3.3,0.2-6
	c2.4-3.5,2.6-5.3,0-8.5c-2.1-2.6-1.6-5-0.2-6.3c1.7-1.6,3.2-1.5,6,0.3c3.7,2.5,4.9,2.5,9.1-0.4c1.6-1.2,3.3-1.9,5-0.5
	C498.6,142,499.1,143.4,499.8,144.4z"/>
<line class="st15" x1="389.2" y1="211" x2="353.6" y2="240.4"/>
<path class="st15" d="M370,226.9c-20.1-24.3-45.6-36.2-57.1-26.7c-7.7,6.4-7.3,20.6,0.3,37.2c3.6,7.9,8.6,16,15.2,23.9
	c6.6,7.9,13.6,14.4,20.7,19.4c14.8,10.6,28.8,13.7,36.5,7.3C397,278.5,390.1,251.2,370,226.9z"/>
<path class="st16" d="M224.9,293.5c-0.6,0.5-1,1.2-1.6,1.7l3.6-3C226.3,292.7,225.5,293,224.9,293.5z"/>
<path class="st16" d="M278.2,358c0.6-0.5,1-1.2,1.6-1.7l-3.6,3C276.8,358.7,277.6,358.5,278.2,358z"/>
<path class="st17" d="M222.9,295.2L222.9,295.2c0.1,0,0.1-0.1,0.2-0.1L222.9,295.2z"/>
<path class="st17" d="M276,359.4l0.2-0.1C276.1,359.3,276.1,359.3,276,359.4L276,359.4z"/>
<g>
	<path class="st18" d="M278.7,247.8c-0.6,0.5-1.4,0.8-1.9,1.4c-2.9,4-2.5,10.9-0.9,17.7l11-9.1l11.1-9.2
		C290.3,244.9,283.1,244.2,278.7,247.8z"/>
	<path class="st18" d="M334,292.1l-11.1,9.2l-11,9.1c7.3,4.1,14,5.6,18.2,3.2c0.6-0.5,1.2-1,1.8-1.5
		C336.2,308.4,337.2,301.6,334,292.1z"/>
</g>
<rect x="302.8" y="336" transform="matrix(0.7705 -0.6374 0.6374 0.7705 -146.9592 273.1811)" class="st18" width="6.3" height="9.4"/>
<rect x="240.9" y="259.6" transform="matrix(0.7705 -0.6374 0.6374 0.7705 -113.4506 216.5262)" class="st19" width="6.3" height="12.5"/>
<path class="st15" d="M276.7,267.8c-2.5-7.8-2.1-14,0.5-18.2l-24.8,20.5l-5.2,4.3l-20.8,17.2l-3.6,3c-0.1,0,0.1,0.3,0,0.4
	c-5.6,8.2,0,26.5,13.6,42.9c13.6,16.4,30.3,25.1,39.4,21.1c0.1,0-0.1-0.4-0.1-0.4l3.6-3l20.8-17.2l5.2-4.3l24.8-20.5
	c-4.6,1.8-10.5,1.3-17.7-2.6"/>
<path class="st15" d="M327.8,260.6c-6.6-7.9-11-15.3-15.2-24l-14.6,12l-11.1,9.2l-11,9.1c1.1,3.2,2.2,6.7,3.7,9.9
	c3,4.9,6.3,11,10.7,16.2s9.1,9.1,13.4,12.9c2.8,2.1,6.2,4,8.1,4.4l11-9.1l11.1-9.2l14.6-12C341.8,275.5,334.4,268.5,327.8,260.6z"/>
<rect x="288.7" y="352.5" transform="matrix(0.6374 0.7705 -0.7705 0.6374 422.08 -123.8611)" class="st15" width="107.9" height="68"/>
<line class="st20" x1="348.1" y1="340" x2="295.7" y2="383.4"/>
<line class="st20" x1="361.8" y1="356.7" x2="309.4" y2="400"/>
<line class="st20" x1="375.6" y1="373.3" x2="323.2" y2="416.6"/>
<line class="st20" x1="389.5" y1="389.8" x2="336.8" y2="433.4"/>
<line class="st20" x1="324" y1="332" x2="392.7" y2="415.1"/>
<line class="st20" x1="313.5" y1="340.6" x2="382.3" y2="423.8"/>
<line class="st20" x1="303" y1="349.3" x2="371.8" y2="432.4"/>
<line class="st20" x1="292.5" y1="358" x2="361.3" y2="441.1"/>
<rect x="151.1" y="185.9" transform="matrix(0.6374 0.7705 -0.7705 0.6374 243.8185 -78.2525)" class="st15" width="107.9" height="68"/>
<line class="st20" x1="210.5" y1="173.4" x2="158.1" y2="216.8"/>
<line class="st20" x1="224.2" y1="190.1" x2="171.8" y2="233.4"/>
<line class="st20" x1="238" y1="206.7" x2="185.6" y2="250"/>
<line class="st20" x1="251.9" y1="223.2" x2="199.2" y2="266.8"/>
<line class="st20" x1="186.4" y1="165.4" x2="255.2" y2="248.5"/>
<line class="st20" x1="175.9" y1="174" x2="244.7" y2="257.2"/>
<line class="st20" x1="165.4" y1="182.7" x2="234.2" y2="265.8"/>
<line class="st20" x1="155" y1="191.4" x2="223.7" y2="274.5"/>
<path class="st21" d="M367.3,179.3c13,0,27.6,6.2,37.8,18.5c10.2,12.3,13.5,27.8,11.1,40.6"/>
<path class="st22" d="M416.2,238.4c2.5-12.8-0.9-28.3-11.1-40.6c-10.2-12.3-24.8-18.5-37.8-18.5"/>
<path class="st22" d="M442,240.6c3.5-19.9-1.6-42.1-16.3-59.8c-14.6-17.7-35.5-26.9-55.7-27.2"/>
<circle class="st0" cx="317.4" cy="134.9" r="5.6"/>
</svg>
