<?xml version="1.0" encoding="utf-8"?>
<!-- Generator: Adobe Illustrator 19.2.0, SVG Export Plug-In . SVG Version: 6.00 Build 0)  -->
<svg version="1.1" id="Layer_1" xmlns="http://www.w3.org/2000/svg" xmlns:xlink="http://www.w3.org/1999/xlink" x="0px" y="0px"
	 viewBox="0 0 640 480" style="enable-background:new 0 0 640 480;" xml:space="preserve">
<style type="text/css">
	.st0{fill:#FFFFFF;}
	.st1{fill:none;stroke:#FFFFFF;stroke-width:4.2403;stroke-miterlimit:10;}
	.st2{fill:#FFFFFF;stroke:#FFFFFF;stroke-width:8.4807;stroke-miterlimit:10;}
	.st3{fill:none;stroke:#FFFFFF;stroke-width:8.4807;stroke-miterlimit:10;}
	.st4{fill:none;stroke:#FFFFFF;stroke-width:3.0015;stroke-miterlimit:10;}
	.st5{fill:none;stroke:#FFFFFF;stroke-width:6.0029;stroke-miterlimit:10;}
	.st6{fill:none;stroke:#FFFFFF;stroke-width:4.1973;stroke-miterlimit:10;}
	.st7{fill:none;stroke:#FFFFFF;stroke-width:2.408;stroke-miterlimit:10;}
	.st8{fill:none;stroke:#FFFFFF;stroke-width:4.2536;stroke-miterlimit:10;}
	.st9{fill:#662D91;}
	.st10{fill:none;stroke:#FFFFFF;stroke-width:4.1973;stroke-linecap:round;stroke-miterlimit:10;}
	.st11{fill:#FFFFFF;stroke:#FFFFFF;stroke-width:3.3569;stroke-linecap:round;stroke-linejoin:round;stroke-miterlimit:10;}
	.st12{fill:none;stroke:#FFFFFF;stroke-width:4.8731;stroke-linecap:round;stroke-linejoin:round;stroke-miterlimit:10;}
	.st13{fill:#FFFFFF;stroke:#FFFFFF;stroke-width:2.7346;stroke-linecap:round;stroke-linejoin:round;stroke-miterlimit:10;}
	.st14{fill:none;stroke:#FFFFFF;stroke-width:5;stroke-linecap:round;stroke-linejoin:round;stroke-miterlimit:10;}
	.st15{fill:none;stroke:#FFFFFF;stroke-width:5.2743;stroke-linecap:round;stroke-linejoin:round;stroke-miterlimit:10;}
	.st16{fill:none;stroke:#FFFFFF;stroke-width:1.5666;stroke-miterlimit:10;}
	.st17{fill:none;stroke:#FFFFFF;stroke-width:1.0329;stroke-miterlimit:10;}
	.st18{fill:none;stroke:#FFFFFF;stroke-width:4.1585;stroke-miterlimit:10;}
	.st19{fill:none;stroke:#FFFFFF;stroke-width:3.7088;stroke-miterlimit:10;}
	.st20{fill:none;stroke:#FFFFFF;stroke-width:2.0792;stroke-miterlimit:10;}
	.st21{fill:none;}
	.st22{fill:none;stroke:#FFFFFF;stroke-width:8.317;stroke-linecap:round;stroke-linejoin:round;stroke-miterlimit:10;}
	.st23{fill:none;stroke:#FFFFFF;stroke-width:15.1145;stroke-linecap:round;stroke-linejoin:round;stroke-miterlimit:10;}
	.st24{fill:none;stroke:#FFFFFF;stroke-width:3.7786;stroke-linecap:round;stroke-linejoin:round;stroke-miterlimit:10;}
	.st25{fill:#FFFFFF;stroke:#FFFFFF;stroke-width:3.7786;stroke-linecap:round;stroke-linejoin:round;stroke-miterlimit:10;}
	.st26{fill:#FFFFFF;stroke:#FFFFFF;stroke-width:4.4203;stroke-linecap:round;stroke-linejoin:round;stroke-miterlimit:10;}
	.st27{fill:#FFFFFF;stroke:#FFFFFF;stroke-width:3.7479;stroke-linecap:round;stroke-linejoin:round;stroke-miterlimit:10;}
</style>
<rect x="291.5" y="155.7" class="st11" width="12.3" height="30.7"/>
<rect x="291.5" y="215.7" class="st11" width="12.3" height="30.7"/>
<rect x="291.5" y="275.8" class="st11" width="12.3" height="30.7"/>
<rect x="328.6" y="80.2" class="st12" width="144.6" height="276"/>
<rect x="262.4" y="127.9" class="st12" width="66.3" height="228.3"/>
<rect x="473.3" y="127.9" class="st12" width="66.3" height="228.3"/>
<rect x="498.1" y="155.7" class="st11" width="12.3" height="30.7"/>
<rect x="352.5" y="109.6" class="st11" width="12.3" height="30.7"/>
<rect x="394.8" y="109.6" class="st11" width="12.3" height="30.7"/>
<rect x="437.1" y="109.6" class="st11" width="12.3" height="30.7"/>
<rect x="352.5" y="175.8" class="st11" width="12.3" height="30.7"/>
<rect x="394.8" y="175.8" class="st11" width="12.3" height="30.7"/>
<rect x="437.1" y="175.8" class="st11" width="12.3" height="30.7"/>
<rect x="352.5" y="242" class="st11" width="12.3" height="30.7"/>
<rect x="394.8" y="242" class="st11" width="12.3" height="30.7"/>
<rect x="437.1" y="242" class="st11" width="12.3" height="30.7"/>
<rect x="498.1" y="215.7" class="st11" width="12.3" height="30.7"/>
<rect x="498.1" y="275.8" class="st11" width="12.3" height="30.7"/>
<rect x="378.1" y="310.4" class="st12" width="45.7" height="45.7"/>
<rect x="168.4" y="137.4" class="st13" width="10" height="25"/>
<rect x="205.6" y="137.4" class="st13" width="10" height="25"/>
<rect x="126.6" y="191.3" class="st13" width="10" height="25"/>
<rect x="166.1" y="191.3" class="st13" width="10" height="25"/>
<rect x="205.6" y="191.3" class="st13" width="10" height="25"/>
<rect x="126.6" y="245.2" class="st13" width="10" height="25"/>
<rect x="166.1" y="245.2" class="st13" width="10" height="25"/>
<rect x="205.6" y="245.2" class="st13" width="10" height="25"/>
<rect x="143.2" y="307.9" class="st12" width="45.7" height="45.7"/>
<polygon class="st14" points="169.5,78.5 169.5,112.5 138.5,112.5 138.5,163.5 92.5,163.5 92.5,354.5 236.5,354.5 236.5,78.5 "/>
</svg>
